<svg class="main-svg" xmlns="http://www.w3.org/2000/svg" xmlns:xlink="http://www.w3.org/1999/xlink" width="1200" height="720" style="" viewBox="0 0 1200 720"><rect x="0" y="0" width="1200" height="720" style="fill: rgb(255, 255, 255); fill-opacity: 1;"/><defs id="defs-cee1f1"><g class="clips"><clipPath id="clipcee1f1xyplot" class="plotclip"><rect width="1123" height="532"/></clipPath><clipPath class="axesclip" id="clipcee1f1x"><rect x="47" y="0" width="1123" height="720"/></clipPath><clipPath class="axesclip" id="clipcee1f1y"><rect x="0" y="50" width="1200" height="532"/></clipPath><clipPath class="axesclip" id="clipcee1f1xy"><rect x="47" y="50" width="1123" height="532"/></clipPath></g><g class="gradients"/><g class="patterns"/></defs><g class="bglayer"/><g class="layer-below"><g class="imagelayer"/><g class="shapelayer"/></g><g class="cartesianlayer"><g class="subplot xy"><g class="layer-subplot"><g class="shapelayer"/><g class="imagelayer"/></g><g class="minor-gridlayer"><g class="x"/><g class="y"/></g><g class="gridlayer"><g class="x"><path class="xgrid crisp" transform="translate(117.19,0)" d="M0,50v532" style="stroke: rgb(235, 240, 248); stroke-opacity: 1; stroke-width: 1px;"/><path class="xgrid crisp" transform="translate(187.38,0)" d="M0,50v532" style="stroke: rgb(235, 240, 248); stroke-opacity: 1; stroke-width: 1px;"/><path class="xgrid crisp" transform="translate(257.56,0)" d="M0,50v532" style="stroke: rgb(235, 240, 248); stroke-opacity: 1; stroke-width: 1px;"/><path class="xgrid crisp" transform="translate(327.75,0)" d="M0,50v532" style="stroke: rgb(235, 240, 248); stroke-opacity: 1; stroke-width: 1px;"/><path class="xgrid crisp" transform="translate(397.94,0)" d="M0,50v532" style="stroke: rgb(235, 240, 248); stroke-opacity: 1; stroke-width: 1px;"/><path class="xgrid crisp" transform="translate(468.13,0)" d="M0,50v532" style="stroke: rgb(235, 240, 248); stroke-opacity: 1; stroke-width: 1px;"/><path class="xgrid crisp" transform="translate(538.31,0)" d="M0,50v532" style="stroke: rgb(235, 240, 248); stroke-opacity: 1; stroke-width: 1px;"/><path class="xgrid crisp" transform="translate(608.5,0)" d="M0,50v532" style="stroke: rgb(235, 240, 248); stroke-opacity: 1; stroke-width: 1px;"/><path class="xgrid crisp" transform="translate(678.69,0)" d="M0,50v532" style="stroke: rgb(235, 240, 248); stroke-opacity: 1; stroke-width: 1px;"/><path class="xgrid crisp" transform="translate(748.88,0)" d="M0,50v532" style="stroke: rgb(235, 240, 248); stroke-opacity: 1; stroke-width: 1px;"/><path class="xgrid crisp" transform="translate(819.06,0)" d="M0,50v532" style="stroke: rgb(235, 240, 248); stroke-opacity: 1; stroke-width: 1px;"/><path class="xgrid crisp" transform="translate(889.25,0)" d="M0,50v532" style="stroke: rgb(235, 240, 248); stroke-opacity: 1; stroke-width: 1px;"/><path class="xgrid crisp" transform="translate(959.44,0)" d="M0,50v532" style="stroke: rgb(235, 240, 248); stroke-opacity: 1; stroke-width: 1px;"/><path class="xgrid crisp" transform="translate(1029.63,0)" d="M0,50v532" style="stroke: rgb(235, 240, 248); stroke-opacity: 1; stroke-width: 1px;"/><path class="xgrid crisp" transform="translate(1099.81,0)" d="M0,50v532" style="stroke: rgb(235, 240, 248); stroke-opacity: 1; stroke-width: 1px;"/></g><g class="y"><path class="ygrid crisp" transform="translate(0,509.23)" d="M47,0h1123" style="stroke: rgb(235, 240, 248); stroke-opacity: 1; stroke-width: 1px;"/><path class="ygrid crisp" transform="translate(0,436.45)" d="M47,0h1123" style="stroke: rgb(235, 240, 248); stroke-opacity: 1; stroke-width: 1px;"/><path class="ygrid crisp" transform="translate(0,363.68)" d="M47,0h1123" style="stroke: rgb(235, 240, 248); stroke-opacity: 1; stroke-width: 1px;"/><path class="ygrid crisp" transform="translate(0,290.90999999999997)" d="M47,0h1123" style="stroke: rgb(235, 240, 248); stroke-opacity: 1; stroke-width: 1px;"/><path class="ygrid crisp" transform="translate(0,218.14)" d="M47,0h1123" style="stroke: rgb(235, 240, 248); stroke-opacity: 1; stroke-width: 1px;"/><path class="ygrid crisp" transform="translate(0,145.36)" d="M47,0h1123" style="stroke: rgb(235, 240, 248); stroke-opacity: 1; stroke-width: 1px;"/><path class="ygrid crisp" transform="translate(0,72.59)" d="M47,0h1123" style="stroke: rgb(235, 240, 248); stroke-opacity: 1; stroke-width: 1px;"/></g></g><g class="zerolinelayer"><path class="yzl zl crisp" transform="translate(0,582)" d="M47,0h1123" style="stroke: rgb(235, 240, 248); stroke-opacity: 1; stroke-width: 2px;"/></g><g class="layer-between"><g class="shapelayer"/><g class="imagelayer"/></g><path class="xlines-below"/><path class="ylines-below"/><g class="overlines-below"/><g class="xaxislayer-below"/><g class="yaxislayer-below"/><g class="overaxes-below"/><g class="overplot"><g class="xy" transform="translate(47,50)" clip-path="url(#clipcee1f1xyplot)"><g class="scatterlayer mlayer"><g class="trace scatter trace12fe93" style="stroke-miterlimit: 2;"><g class="fills"><g><path class="js-fill" d="M1123,532L0,532L0,530.92L1123,531.18" style="fill: rgb(99, 110, 250); fill-opacity: 0.5; stroke-width: 0;"/></g><g><path class="js-fill" d="M0,530.26L912.44,530.84L982.63,530.71L1123,530.74L1123,531.18L0,530.92Z" style="fill: rgb(239, 85, 59); fill-opacity: 0.5; stroke-width: 0;"/></g></g><g class="errorbars"/><g class="lines"><path class="js-line" d="M0,530.92L1123,531.18" style="vector-effect: none; fill: none; stroke: rgb(99, 110, 250); stroke-opacity: 1; stroke-width: 2px; opacity: 1;"/></g><g class="points"/><g class="text"/></g><g class="trace scatter trace942402" style="stroke-miterlimit: 2;"><g class="fills"><g><path class="js-fill" d="M0,529.91L631.69,530.06L701.88,530.15L1123,530.48L1123,530.74L982.63,530.71L912.44,530.84L0,530.26Z" style="fill: rgb(0, 204, 150); fill-opacity: 0.5; stroke-width: 0;"/></g></g><g class="errorbars"/><g class="lines"><path class="js-line" d="M0,530.26L912.44,530.84L982.63,530.71L1123,530.74" style="vector-effect: none; fill: none; stroke: rgb(239, 85, 59); stroke-opacity: 1; stroke-width: 2px; opacity: 1;"/></g><g class="points"/><g class="text"/></g><g class="trace scatter trace191243" style="stroke-miterlimit: 2;"><g class="fills"><g><path class="js-fill" d="M0,527.45L280.75,527.54L350.94,527.45L701.88,527.9L772.06,528.01L912.44,528.74L982.63,528.46L1123,528.46L1123,530.48L701.88,530.15L631.69,530.06L0,529.91Z" style="fill: rgb(171, 99, 250); fill-opacity: 0.5; stroke-width: 0;"/></g></g><g class="errorbars"/><g class="lines"><path class="js-line" d="M0,529.91L631.69,530.06L701.88,530.15L1123,530.48" style="vector-effect: none; fill: none; stroke: rgb(0, 204, 150); stroke-opacity: 1; stroke-width: 2px; opacity: 1;"/></g><g class="points"/><g class="text"/></g><g class="trace scatter trace7d2d25" style="stroke-miterlimit: 2;"><g class="fills"><g><path class="js-fill" d="M0,527.45L280.75,527.54L350.94,527.45L701.88,527.9L772.06,528.01L912.44,528.74L982.63,528.46L1123,528.46L1123,528.46L982.63,528.46L912.44,528.74L772.06,528.01L701.88,527.9L350.94,527.45L280.75,527.54L0,527.45Z" style="fill: rgb(255, 161, 90); fill-opacity: 0.5; stroke-width: 0;"/></g></g><g class="errorbars"/><g class="lines"><path class="js-line" d="M0,527.45L280.75,527.54L350.94,527.45L701.88,527.9L772.06,528.01L912.44,528.74L982.63,528.46L1123,528.46" style="vector-effect: none; fill: none; stroke: rgb(171, 99, 250); stroke-opacity: 1; stroke-width: 2px; opacity: 1;"/></g><g class="points"/><g class="text"/></g><g class="trace scatter trace70985b" style="stroke-miterlimit: 2;"><g class="fills"><g><path class="js-fill" d="M0,527.38L280.75,527.48L350.94,527.38L701.88,527.83L772.06,527.95L912.44,528.68L982.63,528.41L1123,528.4L1123,528.46L982.63,528.46L912.44,528.74L772.06,528.01L701.88,527.9L350.94,527.45L280.75,527.54L0,527.45Z" style="fill: rgb(25, 211, 243); fill-opacity: 0.5; stroke-width: 0;"/></g></g><g class="errorbars"/><g class="lines"><path class="js-line" d="M0,527.45L280.75,527.54L350.94,527.45L701.88,527.9L772.06,528.01L912.44,528.74L982.63,528.46L1123,528.46" style="vector-effect: none; fill: none; stroke: rgb(255, 161, 90); stroke-opacity: 1; stroke-width: 2px; opacity: 1;"/></g><g class="points"/><g class="text"/></g><g class="trace scatter trace32016b" style="stroke-miterlimit: 2;"><g class="fills"><g><path class="js-fill" d="M0,526.74L210.56,527.01L280.75,526.85L631.69,526.98L701.88,527.25L982.63,527.89L1052.81,527.59L1123,527.87L1123,528.4L982.63,528.41L912.44,528.68L772.06,527.95L701.88,527.83L350.94,527.38L280.75,527.48L0,527.38Z" style="fill: rgb(255, 102, 146); fill-opacity: 0.5; stroke-width: 0;"/></g></g><g class="errorbars"/><g class="lines"><path class="js-line" d="M0,527.38L280.75,527.48L350.94,527.38L701.88,527.83L772.06,527.95L912.44,528.68L982.63,528.41L1123,528.4" style="vector-effect: none; fill: none; stroke: rgb(25, 211, 243); stroke-opacity: 1; stroke-width: 2px; opacity: 1;"/></g><g class="points"/><g class="text"/></g><g class="trace scatter tracecfbd29" style="stroke-miterlimit: 2;"><g class="fills"><g><path class="js-fill" d="M0,526.74L210.56,527.01L280.75,526.85L631.69,526.98L701.88,527.25L982.63,527.89L1052.81,527.59L1123,527.87L1123,527.87L1052.81,527.59L982.63,527.89L701.88,527.25L631.69,526.98L280.75,526.85L210.56,527.01L0,526.74Z" style="fill: rgb(182, 232, 128); fill-opacity: 0.5; stroke-width: 0;"/></g></g><g class="errorbars"/><g class="lines"><path class="js-line" d="M0,526.74L210.56,527.01L280.75,526.85L631.69,526.98L701.88,527.25L982.63,527.89L1052.81,527.59L1123,527.87" style="vector-effect: none; fill: none; stroke: rgb(255, 102, 146); stroke-opacity: 1; stroke-width: 2px; opacity: 1;"/></g><g class="points"/><g class="text"/></g><g class="trace scatter trace4bc655" style="stroke-miterlimit: 2;"><g class="fills"><g><path class="js-fill" d="M0,26.6L70.19,47.51L140.38,50.45L210.56,57.43L280.75,44.49L350.94,42.16L421.13,41.94L561.5,74.59L631.69,74.28L701.88,97.85L772.06,111.35L842.25,166.62L912.44,198.86L982.63,164.11L1052.81,146.51L1123,180.63L1123,527.87L1052.81,527.59L982.63,527.89L701.88,527.25L631.69,526.98L280.75,526.85L210.56,527.01L0,526.74Z" style="fill: rgb(255, 151, 255); fill-opacity: 0.5; stroke-width: 0;"/></g></g><g class="errorbars"/><g class="lines"><path class="js-line" d="M0,526.74L210.56,527.01L280.75,526.85L631.69,526.98L701.88,527.25L982.63,527.89L1052.81,527.59L1123,527.87" style="vector-effect: none; fill: none; stroke: rgb(182, 232, 128); stroke-opacity: 1; stroke-width: 2px; opacity: 1;"/></g><g class="points"/><g class="text"/></g><g class="trace scatter tracebd9bba" style="stroke-miterlimit: 2;"><g class="fills"/><g class="errorbars"/><g class="lines"><path class="js-line" d="M0,26.6L70.19,47.51L140.38,50.45L210.56,57.43L280.75,44.49L350.94,42.16L421.13,41.94L561.5,74.59L631.69,74.28L701.88,97.85L772.06,111.35L842.25,166.62L912.44,198.86L982.63,164.11L1052.81,146.51L1123,180.63" style="vector-effect: none; fill: none; stroke: rgb(255, 151, 255); stroke-opacity: 1; stroke-width: 2px; opacity: 1;"/></g><g class="points"/><g class="text"/></g></g></g></g><path class="xlines-above crisp" d="M0,0" style="fill: none;"/><path class="ylines-above crisp" d="M0,0" style="fill: none;"/><g class="overlines-above"/><g class="xaxislayer-above"><g class="xtick"><text text-anchor="end" x="0" y="599" transform="translate(47,0) rotate(-45,0,591)" style="font-family: Arial, sans-serif; font-size: 16px; fill: rgb(34, 34, 34); fill-opacity: 1; white-space: pre; opacity: 1;">2007</text></g><g class="xtick"><text text-anchor="end" x="0" y="599" style="font-family: Arial, sans-serif; font-size: 16px; fill: rgb(34, 34, 34); fill-opacity: 1; white-space: pre; opacity: 1;" transform="translate(117.19,0) rotate(-45,0,591)">2008</text></g><g class="xtick"><text text-anchor="end" x="0" y="599" style="font-family: Arial, sans-serif; font-size: 16px; fill: rgb(34, 34, 34); fill-opacity: 1; white-space: pre; opacity: 1;" transform="translate(187.38,0) rotate(-45,0,591)">2009</text></g><g class="xtick"><text text-anchor="end" x="0" y="599" style="font-family: Arial, sans-serif; font-size: 16px; fill: rgb(34, 34, 34); fill-opacity: 1; white-space: pre; opacity: 1;" transform="translate(257.56,0) rotate(-45,0,591)">2010</text></g><g class="xtick"><text text-anchor="end" x="0" y="599" style="font-family: Arial, sans-serif; font-size: 16px; fill: rgb(34, 34, 34); fill-opacity: 1; white-space: pre; opacity: 1;" transform="translate(327.75,0) rotate(-45,0,591)">2011</text></g><g class="xtick"><text text-anchor="end" x="0" y="599" style="font-family: Arial, sans-serif; font-size: 16px; fill: rgb(34, 34, 34); fill-opacity: 1; white-space: pre; opacity: 1;" transform="translate(397.94,0) rotate(-45,0,591)">2012</text></g><g class="xtick"><text text-anchor="end" x="0" y="599" style="font-family: Arial, sans-serif; font-size: 16px; fill: rgb(34, 34, 34); fill-opacity: 1; white-space: pre; opacity: 1;" transform="translate(468.13,0) rotate(-45,0,591)">2013</text></g><g class="xtick"><text text-anchor="end" x="0" y="599" style="font-family: Arial, sans-serif; font-size: 16px; fill: rgb(34, 34, 34); fill-opacity: 1; white-space: pre; opacity: 1;" transform="translate(538.31,0) rotate(-45,0,591)">2014</text></g><g class="xtick"><text text-anchor="end" x="0" y="599" style="font-family: Arial, sans-serif; font-size: 16px; fill: rgb(34, 34, 34); fill-opacity: 1; white-space: pre; opacity: 1;" transform="translate(608.5,0) rotate(-45,0,591)">2015</text></g><g class="xtick"><text text-anchor="end" x="0" y="599" style="font-family: Arial, sans-serif; font-size: 16px; fill: rgb(34, 34, 34); fill-opacity: 1; white-space: pre; opacity: 1;" transform="translate(678.69,0) rotate(-45,0,591)">2016</text></g><g class="xtick"><text text-anchor="end" x="0" y="599" style="font-family: Arial, sans-serif; font-size: 16px; fill: rgb(34, 34, 34); fill-opacity: 1; white-space: pre; opacity: 1;" transform="translate(748.88,0) rotate(-45,0,591)">2017</text></g><g class="xtick"><text text-anchor="end" x="0" y="599" style="font-family: Arial, sans-serif; font-size: 16px; fill: rgb(34, 34, 34); fill-opacity: 1; white-space: pre; opacity: 1;" transform="translate(819.06,0) rotate(-45,0,591)">2018</text></g><g class="xtick"><text text-anchor="end" x="0" y="599" style="font-family: Arial, sans-serif; font-size: 16px; fill: rgb(34, 34, 34); fill-opacity: 1; white-space: pre; opacity: 1;" transform="translate(889.25,0) rotate(-45,0,591)">2019</text></g><g class="xtick"><text text-anchor="end" x="0" y="599" style="font-family: Arial, sans-serif; font-size: 16px; fill: rgb(34, 34, 34); fill-opacity: 1; white-space: pre; opacity: 1;" transform="translate(959.44,0) rotate(-45,0,591)">2020</text></g><g class="xtick"><text text-anchor="end" x="0" y="599" style="font-family: Arial, sans-serif; font-size: 16px; fill: rgb(34, 34, 34); fill-opacity: 1; white-space: pre; opacity: 1;" transform="translate(1029.63,0) rotate(-45,0,591)">2021</text></g><g class="xtick"><text text-anchor="end" x="0" y="599" style="font-family: Arial, sans-serif; font-size: 16px; fill: rgb(34, 34, 34); fill-opacity: 1; white-space: pre; opacity: 1;" transform="translate(1099.81,0) rotate(-45,0,591)">2022</text></g><g class="xtick"><text text-anchor="end" x="0" y="599" style="font-family: Arial, sans-serif; font-size: 16px; fill: rgb(34, 34, 34); fill-opacity: 1; white-space: pre; opacity: 1;" transform="translate(1170,0) rotate(-45,0,591)">2023</text></g></g><g class="yaxislayer-above"><g class="ytick"><text text-anchor="end" x="46" y="5.6" transform="translate(0,582)" style="font-family: Arial, sans-serif; font-size: 16px; fill: rgb(34, 34, 34); fill-opacity: 1; white-space: pre; opacity: 1;">0</text></g><g class="ytick"><text text-anchor="end" x="46" y="5.6" style="font-family: Arial, sans-serif; font-size: 16px; fill: rgb(34, 34, 34); fill-opacity: 1; white-space: pre; opacity: 1;" transform="translate(0,509.23)">5</text></g><g class="ytick"><text text-anchor="end" x="46" y="5.6" style="font-family: Arial, sans-serif; font-size: 16px; fill: rgb(34, 34, 34); fill-opacity: 1; white-space: pre; opacity: 1;" transform="translate(0,436.45)">10</text></g><g class="ytick"><text text-anchor="end" x="46" y="5.6" style="font-family: Arial, sans-serif; font-size: 16px; fill: rgb(34, 34, 34); fill-opacity: 1; white-space: pre; opacity: 1;" transform="translate(0,363.68)">15</text></g><g class="ytick"><text text-anchor="end" x="46" y="5.6" style="font-family: Arial, sans-serif; font-size: 16px; fill: rgb(34, 34, 34); fill-opacity: 1; white-space: pre; opacity: 1;" transform="translate(0,290.90999999999997)">20</text></g><g class="ytick"><text text-anchor="end" x="46" y="5.6" style="font-family: Arial, sans-serif; font-size: 16px; fill: rgb(34, 34, 34); fill-opacity: 1; white-space: pre; opacity: 1;" transform="translate(0,218.14)">25</text></g><g class="ytick"><text text-anchor="end" x="46" y="5.6" style="font-family: Arial, sans-serif; font-size: 16px; fill: rgb(34, 34, 34); fill-opacity: 1; white-space: pre; opacity: 1;" transform="translate(0,145.36)">30</text></g><g class="ytick"><text text-anchor="end" x="46" y="5.6" style="font-family: Arial, sans-serif; font-size: 16px; fill: rgb(34, 34, 34); fill-opacity: 1; white-space: pre; opacity: 1;" transform="translate(0,72.59)">35</text></g></g><g class="overaxes-above"/></g></g><g class="polarlayer"/><g class="smithlayer"/><g class="ternarylayer"/><g class="geolayer"/><g class="funnelarealayer"/><g class="pielayer"/><g class="iciclelayer"/><g class="treemaplayer"/><g class="sunburstlayer"/><g class="glimages"/><defs id="topdefs-cee1f1"><g class="clips"/><clipPath id="legendcee1f1"><rect width="1219" height="58" x="0" y="0"/></clipPath></defs><g class="layer-above"><g class="imagelayer"/><g class="shapelayer"/></g><g class="infolayer"><g class="legend" pointer-events="all" transform="translate(-1,661.8)"><rect class="bg" shape-rendering="crispEdges" style="stroke: rgb(68, 68, 68); stroke-opacity: 1; fill: rgb(255, 255, 255); fill-opacity: 1; stroke-width: 0px;" width="1219" height="58" x="0" y="0"/><g class="scrollbox" transform="" clip-path="url(#legendcee1f1)"><text class="legendtitletext" text-anchor="start" x="2" y="24.7" style="font-family: Arial, sans-serif; font-size: 19px; fill: rgb(34, 34, 34); fill-opacity: 1; white-space: pre;">Impact Category</text><g class="groups" transform=""><g class="traces" transform="translate(149.892578125,16.9)" style="opacity: 1;"><text class="legendtext" text-anchor="start" x="40" y="6.24" style="font-family: Arial, sans-serif; font-size: 16px; fill: rgb(34, 34, 34); fill-opacity: 1; white-space: pre;">AP Mole of H+-eqv.</text><g class="layers"><g class="legendfill"><path class="js-fill" d="M5,-2h30v6h-30z" style="stroke-width: 0; fill: rgb(99, 110, 250); fill-opacity: 0.5;"/></g><g class="legendlines"><path class="js-line" d="M5,-2h30" style="fill: none; stroke: rgb(99, 110, 250); stroke-opacity: 1; stroke-width: 2px;"/></g><g class="legendsymbols"><g class="legendpoints"/></g></g><rect class="legendtoggle" x="0" y="-11.9" width="181.203125" height="23.8" style="fill: rgb(0, 0, 0); fill-opacity: 0;"/></g></g><g class="groups" transform="translate(183.703125,0)"><g class="traces" transform="translate(149.892578125,16.9)" style="opacity: 1;"><text class="legendtext" text-anchor="start" x="40" y="6.24" style="font-family: Arial, sans-serif; font-size: 16px; fill: rgb(34, 34, 34); fill-opacity: 1; white-space: pre;">EP fw kg P-eqv.</text><g class="layers"><g class="legendfill"><path class="js-fill" d="M5,-2h30v6h-30z" style="stroke-width: 0; fill: rgb(239, 85, 59); fill-opacity: 0.5;"/></g><g class="legendlines"><path class="js-line" d="M5,-2h30" style="fill: none; stroke: rgb(239, 85, 59); stroke-opacity: 1; stroke-width: 2px;"/></g><g class="legendsymbols"><g class="legendpoints"/></g></g><rect class="legendtoggle" x="0" y="-11.9" width="154.84375" height="23.8" style="fill: rgb(0, 0, 0); fill-opacity: 0;"/></g></g><g class="groups" transform="translate(341.046875,0)"><g class="traces" transform="translate(149.892578125,16.9)" style="opacity: 1;"><text class="legendtext" text-anchor="start" x="40" y="6.24" style="font-family: Arial, sans-serif; font-size: 16px; fill: rgb(34, 34, 34); fill-opacity: 1; white-space: pre;">EP sw kg N-eqv.</text><g class="layers"><g class="legendfill"><path class="js-fill" d="M5,-2h30v6h-30z" style="stroke-width: 0; fill: rgb(0, 204, 150); fill-opacity: 0.5;"/></g><g class="legendlines"><path class="js-line" d="M5,-2h30" style="fill: none; stroke: rgb(0, 204, 150); stroke-opacity: 1; stroke-width: 2px;"/></g><g class="legendsymbols"><g class="legendpoints"/></g></g><rect class="legendtoggle" x="0" y="-11.9" width="159.28125" height="23.8" style="fill: rgb(0, 0, 0); fill-opacity: 0;"/></g></g><g class="groups" transform="translate(502.828125,0)"><g class="traces" transform="translate(149.892578125,16.9)" style="opacity: 1;"><text class="legendtext" text-anchor="start" x="40" y="6.24" style="font-family: Arial, sans-serif; font-size: 16px; fill: rgb(34, 34, 34); fill-opacity: 1; white-space: pre;">EP ter Mole of N-eqv.</text><g class="layers"><g class="legendfill"><path class="js-fill" d="M5,-2h30v6h-30z" style="stroke-width: 0; fill: rgb(171, 99, 250); fill-opacity: 0.5;"/></g><g class="legendlines"><path class="js-line" d="M5,-2h30" style="fill: none; stroke: rgb(171, 99, 250); stroke-opacity: 1; stroke-width: 2px;"/></g><g class="legendsymbols"><g class="legendpoints"/></g></g><rect class="legendtoggle" x="0" y="-11.9" width="193.96875" height="23.8" style="fill: rgb(0, 0, 0); fill-opacity: 0;"/></g></g><g class="groups" transform="translate(699.296875,0)"><g class="traces" transform="translate(149.892578125,16.9)" style="opacity: 1;"><text class="legendtext" text-anchor="start" x="40" y="6.24" style="font-family: Arial, sans-serif; font-size: 16px; fill: rgb(34, 34, 34); fill-opacity: 1; white-space: pre;">ODP kg CFC-11-eqv.</text><g class="layers"><g class="legendfill"><path class="js-fill" d="M5,-2h30v6h-30z" style="stroke-width: 0; fill: rgb(255, 161, 90); fill-opacity: 0.5;"/></g><g class="legendlines"><path class="js-line" d="M5,-2h30" style="fill: none; stroke: rgb(255, 161, 90); stroke-opacity: 1; stroke-width: 2px;"/></g><g class="legendsymbols"><g class="legendpoints"/></g></g><rect class="legendtoggle" x="0" y="-11.9" width="191.875" height="23.8" style="fill: rgb(0, 0, 0); fill-opacity: 0;"/></g></g><g class="groups" transform="translate(893.671875,0)"><g class="traces" transform="translate(149.892578125,16.9)" style="opacity: 1;"><text class="legendtext" text-anchor="start" x="40" y="6.24" style="font-family: Arial, sans-serif; font-size: 16px; fill: rgb(34, 34, 34); fill-opacity: 1; white-space: pre;">PM kg PM2.5-eqv.</text><g class="layers"><g class="legendfill"><path class="js-fill" d="M5,-2h30v6h-30z" style="stroke-width: 0; fill: rgb(25, 211, 243); fill-opacity: 0.5;"/></g><g class="legendlines"><path class="js-line" d="M5,-2h30" style="fill: none; stroke: rgb(25, 211, 243); stroke-opacity: 1; stroke-width: 2px;"/></g><g class="legendsymbols"><g class="legendpoints"/></g></g><rect class="legendtoggle" x="0" y="-11.9" width="172.921875" height="23.8" style="fill: rgb(0, 0, 0); fill-opacity: 0;"/></g></g><g class="groups" transform="translate(0,23.8)"><g class="traces" transform="translate(149.892578125,16.9)" style="opacity: 1;"><text class="legendtext" text-anchor="start" x="40" y="6.24" style="font-family: Arial, sans-serif; font-size: 16px; fill: rgb(34, 34, 34); fill-opacity: 1; white-space: pre;">POCP kg NMVOC-eqv.</text><g class="layers"><g class="legendfill"><path class="js-fill" d="M5,-2h30v6h-30z" style="stroke-width: 0; fill: rgb(255, 102, 146); fill-opacity: 0.5;"/></g><g class="legendlines"><path class="js-line" d="M5,-2h30" style="fill: none; stroke: rgb(255, 102, 146); stroke-opacity: 1; stroke-width: 2px;"/></g><g class="legendsymbols"><g class="legendpoints"/></g></g><rect class="legendtoggle" x="0" y="-11.9" width="207.28125" height="23.8" style="fill: rgb(0, 0, 0); fill-opacity: 0;"/></g></g><g class="groups" transform="translate(209.78125,23.8)"><g class="traces" transform="translate(149.892578125,16.9)" style="opacity: 1;"><text class="legendtext" text-anchor="start" x="40" y="6.24" style="font-family: Arial, sans-serif; font-size: 16px; fill: rgb(34, 34, 34); fill-opacity: 1; white-space: pre;">ADP kg Sb-eqv.</text><g class="layers"><g class="legendfill"><path class="js-fill" d="M5,-2h30v6h-30z" style="stroke-width: 0; fill: rgb(182, 232, 128); fill-opacity: 0.5;"/></g><g class="legendlines"><path class="js-line" d="M5,-2h30" style="fill: none; stroke: rgb(182, 232, 128); stroke-opacity: 1; stroke-width: 2px;"/></g><g class="legendsymbols"><g class="legendpoints"/></g></g><rect class="legendtoggle" x="0" y="-11.9" width="155.859375" height="23.8" style="fill: rgb(0, 0, 0); fill-opacity: 0;"/></g></g><g class="groups" transform="translate(368.140625,23.8)"><g class="traces" transform="translate(149.892578125,16.9)" style="opacity: 1;"><text class="legendtext" text-anchor="start" x="40" y="6.24" style="font-family: Arial, sans-serif; font-size: 16px; fill: rgb(34, 34, 34); fill-opacity: 1; white-space: pre;">GWP kg CO2-eqv.</text><g class="layers"><g class="legendfill"><path class="js-fill" d="M5,-2h30v6h-30z" style="stroke-width: 0; fill: rgb(255, 151, 255); fill-opacity: 0.5;"/></g><g class="legendlines"><path class="js-line" d="M5,-2h30" style="fill: none; stroke: rgb(255, 151, 255); stroke-opacity: 1; stroke-width: 2px;"/></g><g class="legendsymbols"><g class="legendpoints"/></g></g><rect class="legendtoggle" x="0" y="-11.9" width="173.5" height="23.8" style="fill: rgb(0, 0, 0); fill-opacity: 0;"/></g></g></g><rect class="scrollbar" rx="20" ry="3" width="0" height="0" style="fill: rgb(128, 139, 164); fill-opacity: 1;" x="0" y="0"/></g><g class="g-gtitle"><text class="gtitle" x="60" y="25" text-anchor="start" dy="0em" style="opacity: 1; font-family: Arial, sans-serif; font-size: 22px; fill: rgb(34, 34, 34); fill-opacity: 1; white-space: pre;">All Environmental Impacts</text></g><g class="g-xtitle"><text class="xtitle" x="608.5" y="651.747265625" text-anchor="middle" style="opacity: 1; font-family: Arial, sans-serif; font-size: 19px; fill: rgb(34, 34, 34); fill-opacity: 1; white-space: pre;">Year</text></g><g class="g-ytitle" transform="translate(9.947265625,0)"><text class="ytitle" transform="rotate(-90,7.053125000000001,316)" x="7.053125000000001" y="316" text-anchor="middle" style="opacity: 1; font-family: Arial, sans-serif; font-size: 19px; fill: rgb(34, 34, 34); fill-opacity: 1; white-space: pre;">Impact Value</text></g></g></svg>