<svg class="main-svg" xmlns="http://www.w3.org/2000/svg" xmlns:xlink="http://www.w3.org/1999/xlink" width="1200" height="720" style="" viewBox="0 0 1200 720"><rect x="0" y="0" width="1200" height="720" style="fill: rgb(255, 255, 255); fill-opacity: 1;"/><defs id="defs-5dfd67"><g class="clips"><clipPath id="clip5dfd67xyplot" class="plotclip"><rect width="1102" height="471"/></clipPath><clipPath class="axesclip" id="clip5dfd67x"><rect x="68" y="0" width="1102" height="720"/></clipPath><clipPath class="axesclip" id="clip5dfd67y"><rect x="0" y="50" width="1200" height="471"/></clipPath><clipPath class="axesclip" id="clip5dfd67xy"><rect x="68" y="50" width="1102" height="471"/></clipPath></g><g class="gradients"/><g class="patterns"/></defs><g class="bglayer"/><g class="layer-below"><g class="imagelayer"/><g class="shapelayer"/></g><g class="cartesianlayer"><g class="subplot xy"><g class="layer-subplot"><g class="shapelayer"/><g class="imagelayer"/></g><g class="minor-gridlayer"><g class="x"/><g class="y"/></g><g class="gridlayer"><g class="x"><path class="xgrid crisp" transform="translate(136.88,0)" d="M0,50v471" style="stroke: rgb(187, 187, 187); stroke-opacity: 1; stroke-width: 1px;"/><path class="xgrid crisp" transform="translate(205.75,0)" d="M0,50v471" style="stroke: rgb(187, 187, 187); stroke-opacity: 1; stroke-width: 1px;"/><path class="xgrid crisp" transform="translate(274.63,0)" d="M0,50v471" style="stroke: rgb(187, 187, 187); stroke-opacity: 1; stroke-width: 1px;"/><path class="xgrid crisp" transform="translate(343.5,0)" d="M0,50v471" style="stroke: rgb(187, 187, 187); stroke-opacity: 1; stroke-width: 1px;"/><path class="xgrid crisp" transform="translate(412.38,0)" d="M0,50v471" style="stroke: rgb(187, 187, 187); stroke-opacity: 1; stroke-width: 1px;"/><path class="xgrid crisp" transform="translate(481.25,0)" d="M0,50v471" style="stroke: rgb(187, 187, 187); stroke-opacity: 1; stroke-width: 1px;"/><path class="xgrid crisp" transform="translate(550.13,0)" d="M0,50v471" style="stroke: rgb(187, 187, 187); stroke-opacity: 1; stroke-width: 1px;"/><path class="xgrid crisp" transform="translate(619,0)" d="M0,50v471" style="stroke: rgb(187, 187, 187); stroke-opacity: 1; stroke-width: 1px;"/><path class="xgrid crisp" transform="translate(687.88,0)" d="M0,50v471" style="stroke: rgb(187, 187, 187); stroke-opacity: 1; stroke-width: 1px;"/><path class="xgrid crisp" transform="translate(756.75,0)" d="M0,50v471" style="stroke: rgb(187, 187, 187); stroke-opacity: 1; stroke-width: 1px;"/><path class="xgrid crisp" transform="translate(825.63,0)" d="M0,50v471" style="stroke: rgb(187, 187, 187); stroke-opacity: 1; stroke-width: 1px;"/><path class="xgrid crisp" transform="translate(894.5,0)" d="M0,50v471" style="stroke: rgb(187, 187, 187); stroke-opacity: 1; stroke-width: 1px;"/><path class="xgrid crisp" transform="translate(963.38,0)" d="M0,50v471" style="stroke: rgb(187, 187, 187); stroke-opacity: 1; stroke-width: 1px;"/><path class="xgrid crisp" transform="translate(1032.25,0)" d="M0,50v471" style="stroke: rgb(187, 187, 187); stroke-opacity: 1; stroke-width: 1px;"/><path class="xgrid crisp" transform="translate(1101.13,0)" d="M0,50v471" style="stroke: rgb(187, 187, 187); stroke-opacity: 1; stroke-width: 1px;"/></g><g class="y"><path class="ygrid crisp" transform="translate(0,456.57)" d="M68,0h1102" style="stroke: rgb(187, 187, 187); stroke-opacity: 1; stroke-width: 1px;"/><path class="ygrid crisp" transform="translate(0,392.14)" d="M68,0h1102" style="stroke: rgb(187, 187, 187); stroke-opacity: 1; stroke-width: 1px;"/><path class="ygrid crisp" transform="translate(0,327.71)" d="M68,0h1102" style="stroke: rgb(187, 187, 187); stroke-opacity: 1; stroke-width: 1px;"/><path class="ygrid crisp" transform="translate(0,263.28999999999996)" d="M68,0h1102" style="stroke: rgb(187, 187, 187); stroke-opacity: 1; stroke-width: 1px;"/><path class="ygrid crisp" transform="translate(0,198.86)" d="M68,0h1102" style="stroke: rgb(187, 187, 187); stroke-opacity: 1; stroke-width: 1px;"/><path class="ygrid crisp" transform="translate(0,134.43)" d="M68,0h1102" style="stroke: rgb(187, 187, 187); stroke-opacity: 1; stroke-width: 1px;"/><path class="ygrid crisp" transform="translate(0,70)" d="M68,0h1102" style="stroke: rgb(187, 187, 187); stroke-opacity: 1; stroke-width: 1px;"/></g></g><g class="zerolinelayer"><path class="yzl zl crisp" transform="translate(0,521)" d="M68,0h1102" style="stroke: rgb(235, 240, 248); stroke-opacity: 1; stroke-width: 2px;"/></g><g class="layer-between"><g class="shapelayer"/><g class="imagelayer"/></g><path class="xlines-below"/><path class="ylines-below"/><g class="overlines-below"/><g class="xaxislayer-below"/><g class="yaxislayer-below"/><g class="overaxes-below"/><g class="overplot"><g class="xy" transform="translate(68,50)" clip-path="url(#clip5dfd67xyplot)"><g class="scatterlayer mlayer"><g class="trace scatter traceac3a24" style="stroke-miterlimit: 2;"><g class="fills"><g><path class="js-fill" d="M1102,471L0,471L0,470.04L1102,470.27" style="fill: rgb(229, 134, 6); fill-opacity: 0.5; stroke-width: 0;"/></g><g><path class="js-fill" d="M0,469.46L964.25,469.86L1033.13,469.76L1102,469.88L1102,470.27L0,470.04Z" style="fill: rgb(93, 105, 177); fill-opacity: 0.5; stroke-width: 0;"/></g></g><g class="errorbars"/><g class="lines"><path class="js-line" d="M0,470.04L1102,470.27" style="vector-effect: none; fill: none; stroke: rgb(229, 134, 6); stroke-opacity: 1; stroke-width: 2px; opacity: 1;"/></g><g class="points"/><g class="text"/></g><g class="trace scatter trace10c9fb" style="stroke-miterlimit: 2;"><g class="fills"><g><path class="js-fill" d="M0,469.15L895.38,469.76L964.25,469.62L1102,469.65L1102,469.88L1033.13,469.76L964.25,469.86L0,469.46Z" style="fill: rgb(82, 188, 163); fill-opacity: 0.5; stroke-width: 0;"/></g></g><g class="errorbars"/><g class="lines"><path class="js-line" d="M0,469.46L964.25,469.86L1033.13,469.76L1102,469.88" style="vector-effect: none; fill: none; stroke: rgb(93, 105, 177); stroke-opacity: 1; stroke-width: 2px; opacity: 1;"/></g><g class="points"/><g class="text"/></g><g class="trace scatter trace8e2829" style="stroke-miterlimit: 2;"><g class="fills"><g><path class="js-fill" d="M0,466.97L275.5,467.05L344.38,466.97L688.75,467.37L757.63,467.47L895.38,468.11L964.25,467.87L1102,467.86L1102,469.65L964.25,469.62L895.38,469.76L0,469.15Z" style="fill: rgb(153, 201, 69); fill-opacity: 0.5; stroke-width: 0;"/></g></g><g class="errorbars"/><g class="lines"><path class="js-line" d="M0,469.15L895.38,469.76L964.25,469.62L1102,469.65" style="vector-effect: none; fill: none; stroke: rgb(82, 188, 163); stroke-opacity: 1; stroke-width: 2px; opacity: 1;"/></g><g class="points"/><g class="text"/></g><g class="trace scatter trace7232a8" style="stroke-miterlimit: 2;"><g class="fills"><g><path class="js-fill" d="M0,466.97L275.5,467.05L344.38,466.97L688.75,467.37L757.63,467.47L895.38,468.11L964.25,467.87L1102,467.86L1102,467.86L964.25,467.87L895.38,468.11L757.63,467.47L688.75,467.37L344.38,466.97L275.5,467.05L0,466.97Z" style="fill: rgb(204, 97, 176); fill-opacity: 0.5; stroke-width: 0;"/></g></g><g class="errorbars"/><g class="lines"><path class="js-line" d="M0,466.97L275.5,467.05L344.38,466.97L688.75,467.37L757.63,467.47L895.38,468.11L964.25,467.87L1102,467.86" style="vector-effect: none; fill: none; stroke: rgb(153, 201, 69); stroke-opacity: 1; stroke-width: 2px; opacity: 1;"/></g><g class="points"/><g class="text"/></g><g class="trace scatter trace451f9e" style="stroke-miterlimit: 2;"><g class="fills"><g><path class="js-fill" d="M0,466.91L275.5,467L344.38,466.91L688.75,467.31L757.63,467.42L895.38,468.06L964.25,467.82L1102,467.81L1102,467.86L964.25,467.87L895.38,468.11L757.63,467.47L688.75,467.37L344.38,466.97L275.5,467.05L0,466.97Z" style="fill: rgb(36, 121, 108); fill-opacity: 0.5; stroke-width: 0;"/></g></g><g class="errorbars"/><g class="lines"><path class="js-line" d="M0,466.97L275.5,467.05L344.38,466.97L688.75,467.37L757.63,467.47L895.38,468.11L964.25,467.87L1102,467.86" style="vector-effect: none; fill: none; stroke: rgb(204, 97, 176); stroke-opacity: 1; stroke-width: 2px; opacity: 1;"/></g><g class="points"/><g class="text"/></g><g class="trace scatter trace1bb7c5" style="stroke-miterlimit: 2;"><g class="fills"><g><path class="js-fill" d="M0,466.34L275.5,466.44L344.38,466.35L619.88,466.56L688.75,466.8L964.25,467.36L1033.13,467.09L1102,467.35L1102,467.81L964.25,467.82L895.38,468.06L757.63,467.42L688.75,467.31L344.38,466.91L275.5,467L0,466.91Z" style="fill: rgb(218, 165, 27); fill-opacity: 0.5; stroke-width: 0;"/></g></g><g class="errorbars"/><g class="lines"><path class="js-line" d="M0,466.91L275.5,467L344.38,466.91L688.75,467.31L757.63,467.42L895.38,468.06L964.25,467.82L1102,467.81" style="vector-effect: none; fill: none; stroke: rgb(36, 121, 108); stroke-opacity: 1; stroke-width: 2px; opacity: 1;"/></g><g class="points"/><g class="text"/></g><g class="trace scatter trace468668" style="stroke-miterlimit: 2;"><g class="fills"><g><path class="js-fill" d="M0,466.34L275.5,466.44L344.38,466.35L619.88,466.56L688.75,466.8L964.25,467.36L1033.13,467.09L1102,467.34L1102,467.35L1033.13,467.09L964.25,467.36L688.75,466.8L619.88,466.56L344.38,466.35L275.5,466.44L0,466.34Z" style="fill: rgb(47, 138, 196); fill-opacity: 0.5; stroke-width: 0;"/></g></g><g class="errorbars"/><g class="lines"><path class="js-line" d="M0,466.34L275.5,466.44L344.38,466.35L619.88,466.56L688.75,466.8L964.25,467.36L1033.13,467.09L1102,467.35" style="vector-effect: none; fill: none; stroke: rgb(218, 165, 27); stroke-opacity: 1; stroke-width: 2px; opacity: 1;"/></g><g class="points"/><g class="text"/></g><g class="trace scatter trace48321a" style="stroke-miterlimit: 2;"><g class="fills"><g><path class="js-fill" d="M0,23.55L68.88,42.06L137.75,44.67L206.63,50.84L275.5,39.39L344.38,37.33L413.25,37.13L551,66.04L619.88,65.76L688.75,86.63L757.63,98.59L826.5,147.52L895.38,176.06L964.25,145.3L1033.13,129.71L1102,159.92L1102,467.34L1033.13,467.09L964.25,467.36L688.75,466.8L619.88,466.56L344.38,466.35L275.5,466.44L0,466.34Z" style="fill: rgb(118, 78, 159); fill-opacity: 0.5; stroke-width: 0;"/></g></g><g class="errorbars"/><g class="lines"><path class="js-line" d="M0,466.34L275.5,466.44L344.38,466.35L619.88,466.56L688.75,466.8L964.25,467.36L1033.13,467.09L1102,467.34" style="vector-effect: none; fill: none; stroke: rgb(47, 138, 196); stroke-opacity: 1; stroke-width: 2px; opacity: 1;"/></g><g class="points"/><g class="text"/></g><g class="trace scatter tracec76fa5" style="stroke-miterlimit: 2;"><g class="fills"/><g class="errorbars"/><g class="lines"><path class="js-line" d="M0,23.55L68.88,42.06L137.75,44.67L206.63,50.84L275.5,39.39L344.38,37.33L413.25,37.13L551,66.04L619.88,65.76L688.75,86.63L757.63,98.59L826.5,147.52L895.38,176.06L964.25,145.3L1033.13,129.71L1102,159.92" style="vector-effect: none; fill: none; stroke: rgb(118, 78, 159); stroke-opacity: 1; stroke-width: 2px; opacity: 1;"/></g><g class="points"/><g class="text"/></g></g></g></g><path class="xlines-above crisp" d="M67,521.5H1170" style="fill: none; stroke-width: 1px; stroke: rgb(34, 34, 34); stroke-opacity: 1;"/><path class="ylines-above crisp" d="M67.5,50V521" style="fill: none; stroke-width: 1px; stroke: rgb(34, 34, 34); stroke-opacity: 1;"/><g class="overlines-above"/><g class="xaxislayer-above"><path class="xtick ticks crisp" d="M0,522v5" transform="translate(68,0)" style="stroke: rgb(68, 68, 68); stroke-opacity: 1; stroke-width: 1px;"/><path class="xtick ticks crisp" d="M0,522v5" transform="translate(136.88,0)" style="stroke: rgb(68, 68, 68); stroke-opacity: 1; stroke-width: 1px;"/><path class="xtick ticks crisp" d="M0,522v5" transform="translate(205.75,0)" style="stroke: rgb(68, 68, 68); stroke-opacity: 1; stroke-width: 1px;"/><path class="xtick ticks crisp" d="M0,522v5" transform="translate(274.63,0)" style="stroke: rgb(68, 68, 68); stroke-opacity: 1; stroke-width: 1px;"/><path class="xtick ticks crisp" d="M0,522v5" transform="translate(343.5,0)" style="stroke: rgb(68, 68, 68); stroke-opacity: 1; stroke-width: 1px;"/><path class="xtick ticks crisp" d="M0,522v5" transform="translate(412.38,0)" style="stroke: rgb(68, 68, 68); stroke-opacity: 1; stroke-width: 1px;"/><path class="xtick ticks crisp" d="M0,522v5" transform="translate(481.25,0)" style="stroke: rgb(68, 68, 68); stroke-opacity: 1; stroke-width: 1px;"/><path class="xtick ticks crisp" d="M0,522v5" transform="translate(550.13,0)" style="stroke: rgb(68, 68, 68); stroke-opacity: 1; stroke-width: 1px;"/><path class="xtick ticks crisp" d="M0,522v5" transform="translate(619,0)" style="stroke: rgb(68, 68, 68); stroke-opacity: 1; stroke-width: 1px;"/><path class="xtick ticks crisp" d="M0,522v5" transform="translate(687.88,0)" style="stroke: rgb(68, 68, 68); stroke-opacity: 1; stroke-width: 1px;"/><path class="xtick ticks crisp" d="M0,522v5" transform="translate(756.75,0)" style="stroke: rgb(68, 68, 68); stroke-opacity: 1; stroke-width: 1px;"/><path class="xtick ticks crisp" d="M0,522v5" transform="translate(825.63,0)" style="stroke: rgb(68, 68, 68); stroke-opacity: 1; stroke-width: 1px;"/><path class="xtick ticks crisp" d="M0,522v5" transform="translate(894.5,0)" style="stroke: rgb(68, 68, 68); stroke-opacity: 1; stroke-width: 1px;"/><path class="xtick ticks crisp" d="M0,522v5" transform="translate(963.38,0)" style="stroke: rgb(68, 68, 68); stroke-opacity: 1; stroke-width: 1px;"/><path class="xtick ticks crisp" d="M0,522v5" transform="translate(1032.25,0)" style="stroke: rgb(68, 68, 68); stroke-opacity: 1; stroke-width: 1px;"/><path class="xtick ticks crisp" d="M0,522v5" transform="translate(1101.13,0)" style="stroke: rgb(68, 68, 68); stroke-opacity: 1; stroke-width: 1px;"/><path class="xtick ticks crisp" d="M0,522v5" transform="translate(1170,0)" style="stroke: rgb(68, 68, 68); stroke-opacity: 1; stroke-width: 1px;"/><g class="xtick"><text text-anchor="end" x="0" y="553.4" transform="translate(68,0) rotate(-45,0,542.4)" style="font-family: Arial, sans-serif; font-size: 22px; fill: rgb(34, 34, 34); fill-opacity: 1; white-space: pre; opacity: 1;">2007</text></g><g class="xtick"><text text-anchor="end" x="0" y="553.4" style="font-family: Arial, sans-serif; font-size: 22px; fill: rgb(34, 34, 34); fill-opacity: 1; white-space: pre; opacity: 1;" transform="translate(136.88,0) rotate(-45,0,542.4)">2008</text></g><g class="xtick"><text text-anchor="end" x="0" y="553.4" style="font-family: Arial, sans-serif; font-size: 22px; fill: rgb(34, 34, 34); fill-opacity: 1; white-space: pre; opacity: 1;" transform="translate(205.75,0) rotate(-45,0,542.4)">2009</text></g><g class="xtick"><text text-anchor="end" x="0" y="553.4" style="font-family: Arial, sans-serif; font-size: 22px; fill: rgb(34, 34, 34); fill-opacity: 1; white-space: pre; opacity: 1;" transform="translate(274.63,0) rotate(-45,0,542.4)">2010</text></g><g class="xtick"><text text-anchor="end" x="0" y="553.4" style="font-family: Arial, sans-serif; font-size: 22px; fill: rgb(34, 34, 34); fill-opacity: 1; white-space: pre; opacity: 1;" transform="translate(343.5,0) rotate(-45,0,542.4)">2011</text></g><g class="xtick"><text text-anchor="end" x="0" y="553.4" style="font-family: Arial, sans-serif; font-size: 22px; fill: rgb(34, 34, 34); fill-opacity: 1; white-space: pre; opacity: 1;" transform="translate(412.38,0) rotate(-45,0,542.4)">2012</text></g><g class="xtick"><text text-anchor="end" x="0" y="553.4" style="font-family: Arial, sans-serif; font-size: 22px; fill: rgb(34, 34, 34); fill-opacity: 1; white-space: pre; opacity: 1;" transform="translate(481.25,0) rotate(-45,0,542.4)">2013</text></g><g class="xtick"><text text-anchor="end" x="0" y="553.4" style="font-family: Arial, sans-serif; font-size: 22px; fill: rgb(34, 34, 34); fill-opacity: 1; white-space: pre; opacity: 1;" transform="translate(550.13,0) rotate(-45,0,542.4)">2014</text></g><g class="xtick"><text text-anchor="end" x="0" y="553.4" style="font-family: Arial, sans-serif; font-size: 22px; fill: rgb(34, 34, 34); fill-opacity: 1; white-space: pre; opacity: 1;" transform="translate(619,0) rotate(-45,0,542.4)">2015</text></g><g class="xtick"><text text-anchor="end" x="0" y="553.4" style="font-family: Arial, sans-serif; font-size: 22px; fill: rgb(34, 34, 34); fill-opacity: 1; white-space: pre; opacity: 1;" transform="translate(687.88,0) rotate(-45,0,542.4)">2016</text></g><g class="xtick"><text text-anchor="end" x="0" y="553.4" style="font-family: Arial, sans-serif; font-size: 22px; fill: rgb(34, 34, 34); fill-opacity: 1; white-space: pre; opacity: 1;" transform="translate(756.75,0) rotate(-45,0,542.4)">2017</text></g><g class="xtick"><text text-anchor="end" x="0" y="553.4" style="font-family: Arial, sans-serif; font-size: 22px; fill: rgb(34, 34, 34); fill-opacity: 1; white-space: pre; opacity: 1;" transform="translate(825.63,0) rotate(-45,0,542.4)">2018</text></g><g class="xtick"><text text-anchor="end" x="0" y="553.4" style="font-family: Arial, sans-serif; font-size: 22px; fill: rgb(34, 34, 34); fill-opacity: 1; white-space: pre; opacity: 1;" transform="translate(894.5,0) rotate(-45,0,542.4)">2019</text></g><g class="xtick"><text text-anchor="end" x="0" y="553.4" style="font-family: Arial, sans-serif; font-size: 22px; fill: rgb(34, 34, 34); fill-opacity: 1; white-space: pre; opacity: 1;" transform="translate(963.38,0) rotate(-45,0,542.4)">2020</text></g><g class="xtick"><text text-anchor="end" x="0" y="553.4" style="font-family: Arial, sans-serif; font-size: 22px; fill: rgb(34, 34, 34); fill-opacity: 1; white-space: pre; opacity: 1;" transform="translate(1032.25,0) rotate(-45,0,542.4)">2021</text></g><g class="xtick"><text text-anchor="end" x="0" y="553.4" style="font-family: Arial, sans-serif; font-size: 22px; fill: rgb(34, 34, 34); fill-opacity: 1; white-space: pre; opacity: 1;" transform="translate(1101.13,0) rotate(-45,0,542.4)">2022</text></g><g class="xtick"><text text-anchor="end" x="0" y="553.4" style="font-family: Arial, sans-serif; font-size: 22px; fill: rgb(34, 34, 34); fill-opacity: 1; white-space: pre; opacity: 1;" transform="translate(1170,0) rotate(-45,0,542.4)">2023</text></g></g><g class="yaxislayer-above"><path class="ytick ticks crisp" d="M67,0h-5" transform="translate(0,521)" style="stroke: rgb(68, 68, 68); stroke-opacity: 1; stroke-width: 1px;"/><path class="ytick ticks crisp" d="M67,0h-5" transform="translate(0,456.57)" style="stroke: rgb(68, 68, 68); stroke-opacity: 1; stroke-width: 1px;"/><path class="ytick ticks crisp" d="M67,0h-5" transform="translate(0,392.14)" style="stroke: rgb(68, 68, 68); stroke-opacity: 1; stroke-width: 1px;"/><path class="ytick ticks crisp" d="M67,0h-5" transform="translate(0,327.71)" style="stroke: rgb(68, 68, 68); stroke-opacity: 1; stroke-width: 1px;"/><path class="ytick ticks crisp" d="M67,0h-5" transform="translate(0,263.28999999999996)" style="stroke: rgb(68, 68, 68); stroke-opacity: 1; stroke-width: 1px;"/><path class="ytick ticks crisp" d="M67,0h-5" transform="translate(0,198.86)" style="stroke: rgb(68, 68, 68); stroke-opacity: 1; stroke-width: 1px;"/><path class="ytick ticks crisp" d="M67,0h-5" transform="translate(0,134.43)" style="stroke: rgb(68, 68, 68); stroke-opacity: 1; stroke-width: 1px;"/><path class="ytick ticks crisp" d="M67,0h-5" transform="translate(0,70)" style="stroke: rgb(68, 68, 68); stroke-opacity: 1; stroke-width: 1px;"/><g class="ytick"><text text-anchor="end" x="57.6" y="7.699999999999999" transform="translate(0,521)" style="font-family: Arial, sans-serif; font-size: 22px; fill: rgb(34, 34, 34); fill-opacity: 1; white-space: pre; opacity: 1;">0</text></g><g class="ytick"><text text-anchor="end" x="57.6" y="7.699999999999999" style="font-family: Arial, sans-serif; font-size: 22px; fill: rgb(34, 34, 34); fill-opacity: 1; white-space: pre; opacity: 1;" transform="translate(0,456.57)">5</text></g><g class="ytick"><text text-anchor="end" x="57.6" y="7.699999999999999" style="font-family: Arial, sans-serif; font-size: 22px; fill: rgb(34, 34, 34); fill-opacity: 1; white-space: pre; opacity: 1;" transform="translate(0,392.14)">10</text></g><g class="ytick"><text text-anchor="end" x="57.6" y="7.699999999999999" style="font-family: Arial, sans-serif; font-size: 22px; fill: rgb(34, 34, 34); fill-opacity: 1; white-space: pre; opacity: 1;" transform="translate(0,327.71)">15</text></g><g class="ytick"><text text-anchor="end" x="57.6" y="7.699999999999999" style="font-family: Arial, sans-serif; font-size: 22px; fill: rgb(34, 34, 34); fill-opacity: 1; white-space: pre; opacity: 1;" transform="translate(0,263.28999999999996)">20</text></g><g class="ytick"><text text-anchor="end" x="57.6" y="7.699999999999999" style="font-family: Arial, sans-serif; font-size: 22px; fill: rgb(34, 34, 34); fill-opacity: 1; white-space: pre; opacity: 1;" transform="translate(0,198.86)">25</text></g><g class="ytick"><text text-anchor="end" x="57.6" y="7.699999999999999" style="font-family: Arial, sans-serif; font-size: 22px; fill: rgb(34, 34, 34); fill-opacity: 1; white-space: pre; opacity: 1;" transform="translate(0,134.43)">30</text></g><g class="ytick"><text text-anchor="end" x="57.6" y="7.699999999999999" style="font-family: Arial, sans-serif; font-size: 22px; fill: rgb(34, 34, 34); fill-opacity: 1; white-space: pre; opacity: 1;" transform="translate(0,70)">35</text></g></g><g class="overaxes-above"/></g></g><g class="polarlayer"/><g class="smithlayer"/><g class="ternarylayer"/><g class="geolayer"/><g class="funnelarealayer"/><g class="pielayer"/><g class="iciclelayer"/><g class="treemaplayer"/><g class="sunburstlayer"/><g class="glimages"/><defs id="topdefs-5dfd67"><g class="clips"/><clipPath id="legend5dfd67"><rect width="947" height="105" x="0" y="0"/></clipPath></defs><g class="layer-above"><g class="imagelayer"/><g class="shapelayer"/></g><g class="infolayer"><g class="legend" pointer-events="all" transform="translate(145.5,615)"><rect class="bg" shape-rendering="crispEdges" style="stroke: rgb(68, 68, 68); stroke-opacity: 1; fill: rgb(255, 255, 255); fill-opacity: 1; stroke-width: 0px;" width="947" height="105" x="0" y="0"/><g class="scrollbox" transform="" clip-path="url(#legend5dfd67)"><g class="groups" transform=""><g class="traces" transform="translate(0,20.8)" style="opacity: 1;"><text class="legendtext" text-anchor="start" x="40" y="8.58" style="font-family: Arial, sans-serif; font-size: 22px; fill: rgb(34, 34, 34); fill-opacity: 1; white-space: pre;">AP Mole of H+-eqv.</text><g class="layers"><g class="legendfill"><path class="js-fill" d="M5,-2h30v6h-30z" style="stroke-width: 0; fill: rgb(229, 134, 6); fill-opacity: 0.5;"/></g><g class="legendlines"><path class="js-line" d="M5,-2h30" style="fill: none; stroke: rgb(229, 134, 6); stroke-opacity: 1; stroke-width: 2px;"/></g><g class="legendsymbols"><g class="legendpoints"/></g></g><rect class="legendtoggle" x="0" y="-15.8" width="232.84375" height="31.6" style="fill: rgb(0, 0, 0); fill-opacity: 0;"/></g></g><g class="groups" transform="translate(235.34375,0)"><g class="traces" transform="translate(0,20.8)" style="opacity: 1;"><text class="legendtext" text-anchor="start" x="40" y="8.58" style="font-family: Arial, sans-serif; font-size: 22px; fill: rgb(34, 34, 34); fill-opacity: 1; white-space: pre;">EP fw kg P-eqv.</text><g class="layers"><g class="legendfill"><path class="js-fill" d="M5,-2h30v6h-30z" style="stroke-width: 0; fill: rgb(93, 105, 177); fill-opacity: 0.5;"/></g><g class="legendlines"><path class="js-line" d="M5,-2h30" style="fill: none; stroke: rgb(93, 105, 177); stroke-opacity: 1; stroke-width: 2px;"/></g><g class="legendsymbols"><g class="legendpoints"/></g></g><rect class="legendtoggle" x="0" y="-15.8" width="196.984375" height="31.6" style="fill: rgb(0, 0, 0); fill-opacity: 0;"/></g></g><g class="groups" transform="translate(434.828125,0)"><g class="traces" transform="translate(0,20.8)" style="opacity: 1;"><text class="legendtext" text-anchor="start" x="40" y="8.58" style="font-family: Arial, sans-serif; font-size: 22px; fill: rgb(34, 34, 34); fill-opacity: 1; white-space: pre;">EP sw kg N-eqv.</text><g class="layers"><g class="legendfill"><path class="js-fill" d="M5,-2h30v6h-30z" style="stroke-width: 0; fill: rgb(82, 188, 163); fill-opacity: 0.5;"/></g><g class="legendlines"><path class="js-line" d="M5,-2h30" style="fill: none; stroke: rgb(82, 188, 163); stroke-opacity: 1; stroke-width: 2px;"/></g><g class="legendsymbols"><g class="legendpoints"/></g></g><rect class="legendtoggle" x="0" y="-15.8" width="203.078125" height="31.6" style="fill: rgb(0, 0, 0); fill-opacity: 0;"/></g></g><g class="groups" transform="translate(640.40625,0)"><g class="traces" transform="translate(0,20.8)" style="opacity: 1;"><text class="legendtext" text-anchor="start" x="40" y="8.58" style="font-family: Arial, sans-serif; font-size: 22px; fill: rgb(34, 34, 34); fill-opacity: 1; white-space: pre;">EP ter Mole of N-eqv.</text><g class="layers"><g class="legendfill"><path class="js-fill" d="M5,-2h30v6h-30z" style="stroke-width: 0; fill: rgb(153, 201, 69); fill-opacity: 0.5;"/></g><g class="legendlines"><path class="js-line" d="M5,-2h30" style="fill: none; stroke: rgb(153, 201, 69); stroke-opacity: 1; stroke-width: 2px;"/></g><g class="legendsymbols"><g class="legendpoints"/></g></g><rect class="legendtoggle" x="0" y="-15.8" width="250.78125" height="31.6" style="fill: rgb(0, 0, 0); fill-opacity: 0;"/></g></g><g class="groups" transform="translate(0,31.6)"><g class="traces" transform="translate(0,20.8)" style="opacity: 1;"><text class="legendtext" text-anchor="start" x="40" y="8.58" style="font-family: Arial, sans-serif; font-size: 22px; fill: rgb(34, 34, 34); fill-opacity: 1; white-space: pre;">ODP kg CFC-11-eqv.</text><g class="layers"><g class="legendfill"><path class="js-fill" d="M5,-2h30v6h-30z" style="stroke-width: 0; fill: rgb(204, 97, 176); fill-opacity: 0.5;"/></g><g class="legendlines"><path class="js-line" d="M5,-2h30" style="fill: none; stroke: rgb(204, 97, 176); stroke-opacity: 1; stroke-width: 2px;"/></g><g class="legendsymbols"><g class="legendpoints"/></g></g><rect class="legendtoggle" x="0" y="-15.8" width="247.890625" height="31.6" style="fill: rgb(0, 0, 0); fill-opacity: 0;"/></g></g><g class="groups" transform="translate(250.390625,31.6)"><g class="traces" transform="translate(0,20.8)" style="opacity: 1;"><text class="legendtext" text-anchor="start" x="40" y="8.58" style="font-family: Arial, sans-serif; font-size: 22px; fill: rgb(34, 34, 34); fill-opacity: 1; white-space: pre;">PM kg PM2.5-eqv.</text><g class="layers"><g class="legendfill"><path class="js-fill" d="M5,-2h30v6h-30z" style="stroke-width: 0; fill: rgb(36, 121, 108); fill-opacity: 0.5;"/></g><g class="legendlines"><path class="js-line" d="M5,-2h30" style="fill: none; stroke: rgb(36, 121, 108); stroke-opacity: 1; stroke-width: 2px;"/></g><g class="legendsymbols"><g class="legendpoints"/></g></g><rect class="legendtoggle" x="0" y="-15.8" width="221.828125" height="31.6" style="fill: rgb(0, 0, 0); fill-opacity: 0;"/></g></g><g class="groups" transform="translate(474.71875,31.6)"><g class="traces" transform="translate(0,20.8)" style="opacity: 1;"><text class="legendtext" text-anchor="start" x="40" y="8.58" style="font-family: Arial, sans-serif; font-size: 22px; fill: rgb(34, 34, 34); fill-opacity: 1; white-space: pre;">POCP kg NMVOC-eqv.</text><g class="layers"><g class="legendfill"><path class="js-fill" d="M5,-2h30v6h-30z" style="stroke-width: 0; fill: rgb(218, 165, 27); fill-opacity: 0.5;"/></g><g class="legendlines"><path class="js-line" d="M5,-2h30" style="fill: none; stroke: rgb(218, 165, 27); stroke-opacity: 1; stroke-width: 2px;"/></g><g class="legendsymbols"><g class="legendpoints"/></g></g><rect class="legendtoggle" x="0" y="-15.8" width="269.078125" height="31.6" style="fill: rgb(0, 0, 0); fill-opacity: 0;"/></g></g><g class="groups" transform="translate(746.296875,31.6)"><g class="traces" transform="translate(0,20.8)" style="opacity: 1;"><text class="legendtext" text-anchor="start" x="40" y="8.58" style="font-family: Arial, sans-serif; font-size: 22px; fill: rgb(34, 34, 34); fill-opacity: 1; white-space: pre;">ADP kg Sb-eqv.</text><g class="layers"><g class="legendfill"><path class="js-fill" d="M5,-2h30v6h-30z" style="stroke-width: 0; fill: rgb(47, 138, 196); fill-opacity: 0.5;"/></g><g class="legendlines"><path class="js-line" d="M5,-2h30" style="fill: none; stroke: rgb(47, 138, 196); stroke-opacity: 1; stroke-width: 2px;"/></g><g class="legendsymbols"><g class="legendpoints"/></g></g><rect class="legendtoggle" x="0" y="-15.8" width="197.984375" height="31.6" style="fill: rgb(0, 0, 0); fill-opacity: 0;"/></g></g><g class="groups" transform="translate(0,63.2)"><g class="traces" transform="translate(0,20.8)" style="opacity: 1;"><text class="legendtext" text-anchor="start" x="40" y="8.58" style="font-family: Arial, sans-serif; font-size: 22px; fill: rgb(34, 34, 34); fill-opacity: 1; white-space: pre;">GWP kg CO2-eqv.</text><g class="layers"><g class="legendfill"><path class="js-fill" d="M5,-2h30v6h-30z" style="stroke-width: 0; fill: rgb(118, 78, 159); fill-opacity: 0.5;"/></g><g class="legendlines"><path class="js-line" d="M5,-2h30" style="fill: none; stroke: rgb(118, 78, 159); stroke-opacity: 1; stroke-width: 2px;"/></g><g class="legendsymbols"><g class="legendpoints"/></g></g><rect class="legendtoggle" x="0" y="-15.8" width="222.625" height="31.6" style="fill: rgb(0, 0, 0); fill-opacity: 0;"/></g></g></g><rect class="scrollbar" rx="20" ry="3" width="0" height="0" style="fill: rgb(128, 139, 164); fill-opacity: 1;" x="0" y="0"/></g><g class="g-gtitle"/><g class="g-xtitle"><text class="xtitle" x="619" y="621.0291015625" text-anchor="middle" style="opacity: 1; font-family: Arial, sans-serif; font-size: 26px; fill: rgb(34, 34, 34); fill-opacity: 1; white-space: pre;">Year</text></g><g class="g-ytitle" transform="translate(14.484375,0)"><text class="ytitle" transform="rotate(-90,9.515234374999999,285.5)" x="9.515234374999999" y="285.5" text-anchor="middle" style="opacity: 1; font-family: Arial, sans-serif; font-size: 26px; fill: rgb(34, 34, 34); fill-opacity: 1; white-space: pre;">Impact Value</text></g></g></svg>