<svg class="main-svg" xmlns="http://www.w3.org/2000/svg" xmlns:xlink="http://www.w3.org/1999/xlink" width="1200" height="720" style="" viewBox="0 0 1200 720"><rect x="0" y="0" width="1200" height="720" style="fill: rgb(255, 255, 255); fill-opacity: 1;"/><defs id="defs-78ffee"><g class="clips"><clipPath id="clip78ffeexyplot" class="plotclip"><rect width="1084" height="497"/></clipPath><clipPath class="axesclip" id="clip78ffeex"><rect x="86" y="0" width="1084" height="720"/></clipPath><clipPath class="axesclip" id="clip78ffeey"><rect x="0" y="50" width="1200" height="497"/></clipPath><clipPath class="axesclip" id="clip78ffeexy"><rect x="86" y="50" width="1084" height="497"/></clipPath></g><g class="gradients"/><g class="patterns"/></defs><g class="bglayer"/><g class="layer-below"><g class="imagelayer"/><g class="shapelayer"/></g><g class="cartesianlayer"><g class="subplot xy"><g class="layer-subplot"><g class="shapelayer"/><g class="imagelayer"/></g><g class="minor-gridlayer"><g class="x"/><g class="y"/></g><g class="gridlayer"><g class="x"><path class="xgrid crisp" transform="translate(153.75,0)" d="M0,50v497" style="stroke: rgb(187, 187, 187); stroke-opacity: 1; stroke-width: 1px;"/><path class="xgrid crisp" transform="translate(221.5,0)" d="M0,50v497" style="stroke: rgb(187, 187, 187); stroke-opacity: 1; stroke-width: 1px;"/><path class="xgrid crisp" transform="translate(289.25,0)" d="M0,50v497" style="stroke: rgb(187, 187, 187); stroke-opacity: 1; stroke-width: 1px;"/><path class="xgrid crisp" transform="translate(357,0)" d="M0,50v497" style="stroke: rgb(187, 187, 187); stroke-opacity: 1; stroke-width: 1px;"/><path class="xgrid crisp" transform="translate(424.75,0)" d="M0,50v497" style="stroke: rgb(187, 187, 187); stroke-opacity: 1; stroke-width: 1px;"/><path class="xgrid crisp" transform="translate(492.5,0)" d="M0,50v497" style="stroke: rgb(187, 187, 187); stroke-opacity: 1; stroke-width: 1px;"/><path class="xgrid crisp" transform="translate(560.25,0)" d="M0,50v497" style="stroke: rgb(187, 187, 187); stroke-opacity: 1; stroke-width: 1px;"/><path class="xgrid crisp" transform="translate(628,0)" d="M0,50v497" style="stroke: rgb(187, 187, 187); stroke-opacity: 1; stroke-width: 1px;"/><path class="xgrid crisp" transform="translate(695.75,0)" d="M0,50v497" style="stroke: rgb(187, 187, 187); stroke-opacity: 1; stroke-width: 1px;"/><path class="xgrid crisp" transform="translate(763.5,0)" d="M0,50v497" style="stroke: rgb(187, 187, 187); stroke-opacity: 1; stroke-width: 1px;"/><path class="xgrid crisp" transform="translate(831.25,0)" d="M0,50v497" style="stroke: rgb(187, 187, 187); stroke-opacity: 1; stroke-width: 1px;"/><path class="xgrid crisp" transform="translate(899,0)" d="M0,50v497" style="stroke: rgb(187, 187, 187); stroke-opacity: 1; stroke-width: 1px;"/><path class="xgrid crisp" transform="translate(966.75,0)" d="M0,50v497" style="stroke: rgb(187, 187, 187); stroke-opacity: 1; stroke-width: 1px;"/><path class="xgrid crisp" transform="translate(1034.5,0)" d="M0,50v497" style="stroke: rgb(187, 187, 187); stroke-opacity: 1; stroke-width: 1px;"/><path class="xgrid crisp" transform="translate(1102.25,0)" d="M0,50v497" style="stroke: rgb(187, 187, 187); stroke-opacity: 1; stroke-width: 1px;"/></g><g class="y"><path class="ygrid crisp" transform="translate(0,482.38)" d="M86,0h1084" style="stroke: rgb(187, 187, 187); stroke-opacity: 1; stroke-width: 1px;"/><path class="ygrid crisp" transform="translate(0,417.75)" d="M86,0h1084" style="stroke: rgb(187, 187, 187); stroke-opacity: 1; stroke-width: 1px;"/><path class="ygrid crisp" transform="translate(0,353.13)" d="M86,0h1084" style="stroke: rgb(187, 187, 187); stroke-opacity: 1; stroke-width: 1px;"/><path class="ygrid crisp" transform="translate(0,288.51)" d="M86,0h1084" style="stroke: rgb(187, 187, 187); stroke-opacity: 1; stroke-width: 1px;"/><path class="ygrid crisp" transform="translate(0,223.88)" d="M86,0h1084" style="stroke: rgb(187, 187, 187); stroke-opacity: 1; stroke-width: 1px;"/><path class="ygrid crisp" transform="translate(0,159.26)" d="M86,0h1084" style="stroke: rgb(187, 187, 187); stroke-opacity: 1; stroke-width: 1px;"/><path class="ygrid crisp" transform="translate(0,94.64)" d="M86,0h1084" style="stroke: rgb(187, 187, 187); stroke-opacity: 1; stroke-width: 1px;"/></g></g><g class="zerolinelayer"><path class="yzl zl crisp" transform="translate(0,547)" d="M86,0h1084" style="stroke: rgb(235, 240, 248); stroke-opacity: 1; stroke-width: 2px;"/></g><g class="layer-between"><g class="shapelayer"/><g class="imagelayer"/></g><path class="xlines-below"/><path class="ylines-below"/><g class="overlines-below"/><g class="xaxislayer-below"/><g class="yaxislayer-below"/><g class="overaxes-below"/><g class="overplot"><g class="xy" transform="translate(86,50)" clip-path="url(#clip78ffeexyplot)"><g class="scatterlayer mlayer"><g class="trace scatter tracedd7ff6" style="stroke-miterlimit: 2;"><g class="fills"><g><path class="js-fill" d="M1084,497L0,497L0,401.06L67.75,406.02L135.5,406.17L203.25,407.38L271,405.18L406.5,401.89L474.25,404.71L542,406.71L609.75,407.92L677.5,413.26L745.25,415.86L813,425.5L880.75,430.46L948.5,425.12L1016.25,418.89L1084,423.94" style="fill: rgb(229, 134, 6); fill-opacity: 0.5; stroke-width: 0;"/></g><g><path class="js-fill" d="M0,342.74L67.75,350.25L135.5,348.94L203.25,352.79L271,347.69L338.75,343.58L406.5,342.25L609.75,353.7L677.5,360.68L745.25,363.77L813,382.78L880.75,394.04L948.5,382.45L1016.25,373.11L1084,384.82L1084,423.94L1016.25,418.89L948.5,425.12L880.75,430.46L813,425.5L745.25,415.86L677.5,413.26L609.75,407.92L542,406.71L474.25,404.71L406.5,401.89L271,405.18L203.25,407.38L135.5,406.17L67.75,406.02L0,401.06Z" style="fill: rgb(93, 105, 177); fill-opacity: 0.5; stroke-width: 0;"/></g></g><g class="errorbars"/><g class="lines"><path class="js-line" d="M0,401.06L67.75,406.02L135.5,406.17L203.25,407.38L271,405.18L406.5,401.89L474.25,404.71L542,406.71L609.75,407.92L677.5,413.26L745.25,415.86L813,425.5L880.75,430.46L948.5,425.12L1016.25,418.89L1084,423.94" style="vector-effect: none; fill: none; stroke: rgb(229, 134, 6); stroke-opacity: 1; stroke-width: 2px; opacity: 1;"/></g><g class="points"/><g class="text"/></g><g class="trace scatter trace2df08d" style="stroke-miterlimit: 2;"><g class="fills"><g><path class="js-fill" d="M0,311.41L67.75,320.21L135.5,318.74L203.25,323.14L271,317.07L338.75,312.33L406.5,310.78L542,320.61L609.75,324.34L677.5,332.77L745.25,336.51L813,359.14L880.75,372.53L948.5,358.7L1016.25,347.89L1084,361.92L1084,384.82L1016.25,373.11L948.5,382.45L880.75,394.04L813,382.78L745.25,363.77L677.5,360.68L609.75,353.7L406.5,342.25L338.75,343.58L271,347.69L203.25,352.79L135.5,348.94L67.75,350.25L0,342.74Z" style="fill: rgb(82, 188, 163); fill-opacity: 0.5; stroke-width: 0;"/></g></g><g class="errorbars"/><g class="lines"><path class="js-line" d="M0,342.74L67.75,350.25L135.5,348.94L203.25,352.79L271,347.69L338.75,343.58L406.5,342.25L609.75,353.7L677.5,360.68L745.25,363.77L813,382.78L880.75,394.04L948.5,382.45L1016.25,373.11L1084,384.82" style="vector-effect: none; fill: none; stroke: rgb(93, 105, 177); stroke-opacity: 1; stroke-width: 2px; opacity: 1;"/></g><g class="points"/><g class="text"/></g><g class="trace scatter trace30515b" style="stroke-miterlimit: 2;"><g class="fills"><g><path class="js-fill" d="M0,92.73L67.75,110.48L135.5,109.56L203.25,113.65L271,101.25L338.75,92.9L406.5,87.83L542,107.9L609.75,111.56L677.5,132.62L745.25,142.93L813,184.99L880.75,207.22L948.5,182.88L1016.25,159.48L1084,182.54L1084,361.92L1016.25,347.89L948.5,358.7L880.75,372.53L813,359.14L745.25,336.51L677.5,332.77L609.75,324.34L542,320.61L406.5,310.78L338.75,312.33L271,317.07L203.25,323.14L135.5,318.74L67.75,320.21L0,311.41Z" style="fill: rgb(153, 201, 69); fill-opacity: 0.5; stroke-width: 0;"/></g></g><g class="errorbars"/><g class="lines"><path class="js-line" d="M0,311.41L67.75,320.21L135.5,318.74L203.25,323.14L271,317.07L338.75,312.33L406.5,310.78L542,320.61L609.75,324.34L677.5,332.77L745.25,336.51L813,359.14L880.75,372.53L948.5,358.7L1016.25,347.89L1084,361.92" style="vector-effect: none; fill: none; stroke: rgb(82, 188, 163); stroke-opacity: 1; stroke-width: 2px; opacity: 1;"/></g><g class="points"/><g class="text"/></g><g class="trace scatter trace867d9f" style="stroke-miterlimit: 2;"><g class="fills"><g><path class="js-fill" d="M0,92.73L67.75,110.48L135.5,109.56L203.25,113.65L271,101.25L338.75,92.89L406.5,87.82L542,107.89L609.75,111.56L677.5,132.62L745.25,142.93L813,184.99L880.75,207.22L948.5,182.87L1016.25,159.48L1084,182.54L1084,182.54L1016.25,159.48L948.5,182.88L880.75,207.22L813,184.99L745.25,142.93L677.5,132.62L609.75,111.56L542,107.9L406.5,87.83L338.75,92.9L271,101.25L203.25,113.65L135.5,109.56L67.75,110.48L0,92.73Z" style="fill: rgb(204, 97, 176); fill-opacity: 0.5; stroke-width: 0;"/></g></g><g class="errorbars"/><g class="lines"><path class="js-line" d="M0,92.73L67.75,110.48L135.5,109.56L203.25,113.65L271,101.25L338.75,92.9L406.5,87.83L542,107.9L609.75,111.56L677.5,132.62L745.25,142.93L813,184.99L880.75,207.22L948.5,182.88L1016.25,159.48L1084,182.54" style="vector-effect: none; fill: none; stroke: rgb(153, 201, 69); stroke-opacity: 1; stroke-width: 2px; opacity: 1;"/></g><g class="points"/><g class="text"/></g><g class="trace scatter tracebbc684" style="stroke-miterlimit: 2;"><g class="fills"><g><path class="js-fill" d="M0,87.03L67.75,105L135.5,103.95L203.25,108.15L271,95.6L338.75,87.01L406.5,81.83L542,102.04L609.75,105.82L677.5,127.12L745.25,137.52L813,179.98L880.75,202.34L1016.25,153.88L1084,177.05L1084,182.54L1016.25,159.48L948.5,182.87L880.75,207.22L813,184.99L745.25,142.93L677.5,132.62L609.75,111.56L542,107.89L406.5,87.82L338.75,92.89L271,101.25L203.25,113.65L135.5,109.56L67.75,110.48L0,92.73Z" style="fill: rgb(36, 121, 108); fill-opacity: 0.5; stroke-width: 0;"/></g></g><g class="errorbars"/><g class="lines"><path class="js-line" d="M0,92.73L67.75,110.48L135.5,109.56L203.25,113.65L271,101.25L338.75,92.89L406.5,87.82L542,107.89L609.75,111.56L677.5,132.62L745.25,142.93L813,184.99L880.75,207.22L948.5,182.87L1016.25,159.48L1084,182.54" style="vector-effect: none; fill: none; stroke: rgb(204, 97, 176); stroke-opacity: 1; stroke-width: 2px; opacity: 1;"/></g><g class="points"/><g class="text"/></g><g class="trace scatter trace77d54d" style="stroke-miterlimit: 2;"><g class="fills"><g><path class="js-fill" d="M0,30.03L67.75,50.14L135.5,49.47L203.25,53.61L271,39.62L338.75,30.64L406.5,24.91L542,47.97L609.75,51.3L677.5,75.56L745.25,87.62L813,134.69L880.75,159.08L1016.25,105.3L1084,130.47L1084,177.05L1016.25,153.88L880.75,202.34L813,179.98L745.25,137.52L677.5,127.12L609.75,105.82L542,102.04L406.5,81.83L338.75,87.01L271,95.6L203.25,108.15L135.5,103.95L67.75,105L0,87.03Z" style="fill: rgb(218, 165, 27); fill-opacity: 0.5; stroke-width: 0;"/></g></g><g class="errorbars"/><g class="lines"><path class="js-line" d="M0,87.03L67.75,105L135.5,103.95L203.25,108.15L271,95.6L338.75,87.01L406.5,81.83L542,102.04L609.75,105.82L677.5,127.12L745.25,137.52L813,179.98L880.75,202.34L1016.25,153.88L1084,177.05" style="vector-effect: none; fill: none; stroke: rgb(36, 121, 108); stroke-opacity: 1; stroke-width: 2px; opacity: 1;"/></g><g class="points"/><g class="text"/></g><g class="trace scatter trace0dd22f" style="stroke-miterlimit: 2;"><g class="fills"><g><path class="js-fill" d="M0,30L67.75,50.1L135.5,49.43L203.25,53.57L271,39.56L338.75,30.58L406.5,24.85L542,47.89L609.75,51.23L677.5,75.48L745.25,87.52L813,134.58L880.75,158.96L1016.25,105.18L1084,130.32L1084,130.47L1016.25,105.3L880.75,159.08L813,134.69L745.25,87.62L677.5,75.56L609.75,51.3L542,47.97L406.5,24.91L338.75,30.64L271,39.62L203.25,53.61L135.5,49.47L67.75,50.14L0,30.03Z" style="fill: rgb(47, 138, 196); fill-opacity: 0.5; stroke-width: 0;"/></g></g><g class="errorbars"/><g class="lines"><path class="js-line" d="M0,30.03L67.75,50.14L135.5,49.47L203.25,53.61L271,39.62L338.75,30.64L406.5,24.91L542,47.97L609.75,51.3L677.5,75.56L745.25,87.62L813,134.69L880.75,159.08L1016.25,105.3L1084,130.47" style="vector-effect: none; fill: none; stroke: rgb(218, 165, 27); stroke-opacity: 1; stroke-width: 2px; opacity: 1;"/></g><g class="points"/><g class="text"/></g><g class="trace scatter tracebc6d5d" style="stroke-miterlimit: 2;"><g class="fills"/><g class="errorbars"/><g class="lines"><path class="js-line" d="M0,30L67.75,50.1L135.5,49.43L203.25,53.57L271,39.56L338.75,30.58L406.5,24.85L542,47.89L609.75,51.23L677.5,75.48L745.25,87.52L813,134.58L880.75,158.96L1016.25,105.18L1084,130.32" style="vector-effect: none; fill: none; stroke: rgb(47, 138, 196); stroke-opacity: 1; stroke-width: 2px; opacity: 1;"/></g><g class="points"/><g class="text"/></g></g></g></g><path class="xlines-above crisp" d="M85,547.5H1170" style="fill: none; stroke-width: 1px; stroke: rgb(34, 34, 34); stroke-opacity: 1;"/><path class="ylines-above crisp" d="M85.5,50V547" style="fill: none; stroke-width: 1px; stroke: rgb(34, 34, 34); stroke-opacity: 1;"/><g class="overlines-above"/><g class="xaxislayer-above"><path class="xtick ticks crisp" d="M0,548v5" transform="translate(86,0)" style="stroke: rgb(68, 68, 68); stroke-opacity: 1; stroke-width: 1px;"/><path class="xtick ticks crisp" d="M0,548v5" transform="translate(153.75,0)" style="stroke: rgb(68, 68, 68); stroke-opacity: 1; stroke-width: 1px;"/><path class="xtick ticks crisp" d="M0,548v5" transform="translate(221.5,0)" style="stroke: rgb(68, 68, 68); stroke-opacity: 1; stroke-width: 1px;"/><path class="xtick ticks crisp" d="M0,548v5" transform="translate(289.25,0)" style="stroke: rgb(68, 68, 68); stroke-opacity: 1; stroke-width: 1px;"/><path class="xtick ticks crisp" d="M0,548v5" transform="translate(357,0)" style="stroke: rgb(68, 68, 68); stroke-opacity: 1; stroke-width: 1px;"/><path class="xtick ticks crisp" d="M0,548v5" transform="translate(424.75,0)" style="stroke: rgb(68, 68, 68); stroke-opacity: 1; stroke-width: 1px;"/><path class="xtick ticks crisp" d="M0,548v5" transform="translate(492.5,0)" style="stroke: rgb(68, 68, 68); stroke-opacity: 1; stroke-width: 1px;"/><path class="xtick ticks crisp" d="M0,548v5" transform="translate(560.25,0)" style="stroke: rgb(68, 68, 68); stroke-opacity: 1; stroke-width: 1px;"/><path class="xtick ticks crisp" d="M0,548v5" transform="translate(628,0)" style="stroke: rgb(68, 68, 68); stroke-opacity: 1; stroke-width: 1px;"/><path class="xtick ticks crisp" d="M0,548v5" transform="translate(695.75,0)" style="stroke: rgb(68, 68, 68); stroke-opacity: 1; stroke-width: 1px;"/><path class="xtick ticks crisp" d="M0,548v5" transform="translate(763.5,0)" style="stroke: rgb(68, 68, 68); stroke-opacity: 1; stroke-width: 1px;"/><path class="xtick ticks crisp" d="M0,548v5" transform="translate(831.25,0)" style="stroke: rgb(68, 68, 68); stroke-opacity: 1; stroke-width: 1px;"/><path class="xtick ticks crisp" d="M0,548v5" transform="translate(899,0)" style="stroke: rgb(68, 68, 68); stroke-opacity: 1; stroke-width: 1px;"/><path class="xtick ticks crisp" d="M0,548v5" transform="translate(966.75,0)" style="stroke: rgb(68, 68, 68); stroke-opacity: 1; stroke-width: 1px;"/><path class="xtick ticks crisp" d="M0,548v5" transform="translate(1034.5,0)" style="stroke: rgb(68, 68, 68); stroke-opacity: 1; stroke-width: 1px;"/><path class="xtick ticks crisp" d="M0,548v5" transform="translate(1102.25,0)" style="stroke: rgb(68, 68, 68); stroke-opacity: 1; stroke-width: 1px;"/><path class="xtick ticks crisp" d="M0,548v5" transform="translate(1170,0)" style="stroke: rgb(68, 68, 68); stroke-opacity: 1; stroke-width: 1px;"/><g class="xtick"><text text-anchor="end" x="0" y="579.4" transform="translate(86,0) rotate(-45,0,568.4)" style="font-family: Arial, sans-serif; font-size: 22px; fill: rgb(34, 34, 34); fill-opacity: 1; white-space: pre; opacity: 1;">2007</text></g><g class="xtick"><text text-anchor="end" x="0" y="579.4" style="font-family: Arial, sans-serif; font-size: 22px; fill: rgb(34, 34, 34); fill-opacity: 1; white-space: pre; opacity: 1;" transform="translate(153.75,0) rotate(-45,0,568.4)">2008</text></g><g class="xtick"><text text-anchor="end" x="0" y="579.4" style="font-family: Arial, sans-serif; font-size: 22px; fill: rgb(34, 34, 34); fill-opacity: 1; white-space: pre; opacity: 1;" transform="translate(221.5,0) rotate(-45,0,568.4)">2009</text></g><g class="xtick"><text text-anchor="end" x="0" y="579.4" style="font-family: Arial, sans-serif; font-size: 22px; fill: rgb(34, 34, 34); fill-opacity: 1; white-space: pre; opacity: 1;" transform="translate(289.25,0) rotate(-45,0,568.4)">2010</text></g><g class="xtick"><text text-anchor="end" x="0" y="579.4" style="font-family: Arial, sans-serif; font-size: 22px; fill: rgb(34, 34, 34); fill-opacity: 1; white-space: pre; opacity: 1;" transform="translate(357,0) rotate(-45,0,568.4)">2011</text></g><g class="xtick"><text text-anchor="end" x="0" y="579.4" style="font-family: Arial, sans-serif; font-size: 22px; fill: rgb(34, 34, 34); fill-opacity: 1; white-space: pre; opacity: 1;" transform="translate(424.75,0) rotate(-45,0,568.4)">2012</text></g><g class="xtick"><text text-anchor="end" x="0" y="579.4" style="font-family: Arial, sans-serif; font-size: 22px; fill: rgb(34, 34, 34); fill-opacity: 1; white-space: pre; opacity: 1;" transform="translate(492.5,0) rotate(-45,0,568.4)">2013</text></g><g class="xtick"><text text-anchor="end" x="0" y="579.4" style="font-family: Arial, sans-serif; font-size: 22px; fill: rgb(34, 34, 34); fill-opacity: 1; white-space: pre; opacity: 1;" transform="translate(560.25,0) rotate(-45,0,568.4)">2014</text></g><g class="xtick"><text text-anchor="end" x="0" y="579.4" style="font-family: Arial, sans-serif; font-size: 22px; fill: rgb(34, 34, 34); fill-opacity: 1; white-space: pre; opacity: 1;" transform="translate(628,0) rotate(-45,0,568.4)">2015</text></g><g class="xtick"><text text-anchor="end" x="0" y="579.4" style="font-family: Arial, sans-serif; font-size: 22px; fill: rgb(34, 34, 34); fill-opacity: 1; white-space: pre; opacity: 1;" transform="translate(695.75,0) rotate(-45,0,568.4)">2016</text></g><g class="xtick"><text text-anchor="end" x="0" y="579.4" style="font-family: Arial, sans-serif; font-size: 22px; fill: rgb(34, 34, 34); fill-opacity: 1; white-space: pre; opacity: 1;" transform="translate(763.5,0) rotate(-45,0,568.4)">2017</text></g><g class="xtick"><text text-anchor="end" x="0" y="579.4" style="font-family: Arial, sans-serif; font-size: 22px; fill: rgb(34, 34, 34); fill-opacity: 1; white-space: pre; opacity: 1;" transform="translate(831.25,0) rotate(-45,0,568.4)">2018</text></g><g class="xtick"><text text-anchor="end" x="0" y="579.4" style="font-family: Arial, sans-serif; font-size: 22px; fill: rgb(34, 34, 34); fill-opacity: 1; white-space: pre; opacity: 1;" transform="translate(899,0) rotate(-45,0,568.4)">2019</text></g><g class="xtick"><text text-anchor="end" x="0" y="579.4" style="font-family: Arial, sans-serif; font-size: 22px; fill: rgb(34, 34, 34); fill-opacity: 1; white-space: pre; opacity: 1;" transform="translate(966.75,0) rotate(-45,0,568.4)">2020</text></g><g class="xtick"><text text-anchor="end" x="0" y="579.4" style="font-family: Arial, sans-serif; font-size: 22px; fill: rgb(34, 34, 34); fill-opacity: 1; white-space: pre; opacity: 1;" transform="translate(1034.5,0) rotate(-45,0,568.4)">2021</text></g><g class="xtick"><text text-anchor="end" x="0" y="579.4" style="font-family: Arial, sans-serif; font-size: 22px; fill: rgb(34, 34, 34); fill-opacity: 1; white-space: pre; opacity: 1;" transform="translate(1102.25,0) rotate(-45,0,568.4)">2022</text></g><g class="xtick"><text text-anchor="end" x="0" y="579.4" style="font-family: Arial, sans-serif; font-size: 22px; fill: rgb(34, 34, 34); fill-opacity: 1; white-space: pre; opacity: 1;" transform="translate(1170,0) rotate(-45,0,568.4)">2023</text></g></g><g class="yaxislayer-above"><path class="ytick ticks crisp" d="M85,0h-5" transform="translate(0,547)" style="stroke: rgb(68, 68, 68); stroke-opacity: 1; stroke-width: 1px;"/><path class="ytick ticks crisp" d="M85,0h-5" transform="translate(0,482.38)" style="stroke: rgb(68, 68, 68); stroke-opacity: 1; stroke-width: 1px;"/><path class="ytick ticks crisp" d="M85,0h-5" transform="translate(0,417.75)" style="stroke: rgb(68, 68, 68); stroke-opacity: 1; stroke-width: 1px;"/><path class="ytick ticks crisp" d="M85,0h-5" transform="translate(0,353.13)" style="stroke: rgb(68, 68, 68); stroke-opacity: 1; stroke-width: 1px;"/><path class="ytick ticks crisp" d="M85,0h-5" transform="translate(0,288.51)" style="stroke: rgb(68, 68, 68); stroke-opacity: 1; stroke-width: 1px;"/><path class="ytick ticks crisp" d="M85,0h-5" transform="translate(0,223.88)" style="stroke: rgb(68, 68, 68); stroke-opacity: 1; stroke-width: 1px;"/><path class="ytick ticks crisp" d="M85,0h-5" transform="translate(0,159.26)" style="stroke: rgb(68, 68, 68); stroke-opacity: 1; stroke-width: 1px;"/><path class="ytick ticks crisp" d="M85,0h-5" transform="translate(0,94.64)" style="stroke: rgb(68, 68, 68); stroke-opacity: 1; stroke-width: 1px;"/><g class="ytick"><text text-anchor="end" x="75.6" y="7.699999999999999" transform="translate(0,547)" style="font-family: Arial, sans-serif; font-size: 22px; fill: rgb(34, 34, 34); fill-opacity: 1; white-space: pre; opacity: 1;">0</text></g><g class="ytick"><text text-anchor="end" x="75.6" y="7.699999999999999" style="font-family: Arial, sans-serif; font-size: 22px; fill: rgb(34, 34, 34); fill-opacity: 1; white-space: pre; opacity: 1;" transform="translate(0,482.38)">0.05</text></g><g class="ytick"><text text-anchor="end" x="75.6" y="7.699999999999999" style="font-family: Arial, sans-serif; font-size: 22px; fill: rgb(34, 34, 34); fill-opacity: 1; white-space: pre; opacity: 1;" transform="translate(0,417.75)">0.1</text></g><g class="ytick"><text text-anchor="end" x="75.6" y="7.699999999999999" style="font-family: Arial, sans-serif; font-size: 22px; fill: rgb(34, 34, 34); fill-opacity: 1; white-space: pre; opacity: 1;" transform="translate(0,353.13)">0.15</text></g><g class="ytick"><text text-anchor="end" x="75.6" y="7.699999999999999" style="font-family: Arial, sans-serif; font-size: 22px; fill: rgb(34, 34, 34); fill-opacity: 1; white-space: pre; opacity: 1;" transform="translate(0,288.51)">0.2</text></g><g class="ytick"><text text-anchor="end" x="75.6" y="7.699999999999999" style="font-family: Arial, sans-serif; font-size: 22px; fill: rgb(34, 34, 34); fill-opacity: 1; white-space: pre; opacity: 1;" transform="translate(0,223.88)">0.25</text></g><g class="ytick"><text text-anchor="end" x="75.6" y="7.699999999999999" style="font-family: Arial, sans-serif; font-size: 22px; fill: rgb(34, 34, 34); fill-opacity: 1; white-space: pre; opacity: 1;" transform="translate(0,159.26)">0.3</text></g><g class="ytick"><text text-anchor="end" x="75.6" y="7.699999999999999" style="font-family: Arial, sans-serif; font-size: 22px; fill: rgb(34, 34, 34); fill-opacity: 1; white-space: pre; opacity: 1;" transform="translate(0,94.64)">0.35</text></g></g><g class="overaxes-above"/></g></g><g class="polarlayer"/><g class="smithlayer"/><g class="ternarylayer"/><g class="geolayer"/><g class="funnelarealayer"/><g class="pielayer"/><g class="iciclelayer"/><g class="treemaplayer"/><g class="sunburstlayer"/><g class="glimages"/><defs id="topdefs-78ffee"><g class="clips"/><clipPath id="legend78ffee"><rect width="947" height="74" x="0" y="0"/></clipPath></defs><g class="layer-above"><g class="imagelayer"/><g class="shapelayer"/></g><g class="infolayer"><g class="legend" pointer-events="all" transform="translate(154.5,646)"><rect class="bg" shape-rendering="crispEdges" style="stroke: rgb(68, 68, 68); stroke-opacity: 1; fill: rgb(255, 255, 255); fill-opacity: 1; stroke-width: 0px;" width="947" height="74" x="0" y="0"/><g class="scrollbox" transform="" clip-path="url(#legend78ffee)"><g class="groups" transform=""><g class="traces" transform="translate(0,20.8)" style="opacity: 1;"><text class="legendtext" text-anchor="start" x="40" y="8.58" style="font-family: Arial, sans-serif; font-size: 22px; fill: rgb(34, 34, 34); fill-opacity: 1; white-space: pre;">AP Mole of H+-eqv.</text><g class="layers"><g class="legendfill"><path class="js-fill" d="M5,-2h30v6h-30z" style="stroke-width: 0; fill: rgb(229, 134, 6); fill-opacity: 0.5;"/></g><g class="legendlines"><path class="js-line" d="M5,-2h30" style="fill: none; stroke: rgb(229, 134, 6); stroke-opacity: 1; stroke-width: 2px;"/></g><g class="legendsymbols"><g class="legendpoints"/></g></g><rect class="legendtoggle" x="0" y="-15.8" width="232.84375" height="31.6" style="fill: rgb(0, 0, 0); fill-opacity: 0;"/></g></g><g class="groups" transform="translate(235.34375,0)"><g class="traces" transform="translate(0,20.8)" style="opacity: 1;"><text class="legendtext" text-anchor="start" x="40" y="8.58" style="font-family: Arial, sans-serif; font-size: 22px; fill: rgb(34, 34, 34); fill-opacity: 1; white-space: pre;">EP fw kg P-eqv.</text><g class="layers"><g class="legendfill"><path class="js-fill" d="M5,-2h30v6h-30z" style="stroke-width: 0; fill: rgb(93, 105, 177); fill-opacity: 0.5;"/></g><g class="legendlines"><path class="js-line" d="M5,-2h30" style="fill: none; stroke: rgb(93, 105, 177); stroke-opacity: 1; stroke-width: 2px;"/></g><g class="legendsymbols"><g class="legendpoints"/></g></g><rect class="legendtoggle" x="0" y="-15.8" width="196.984375" height="31.6" style="fill: rgb(0, 0, 0); fill-opacity: 0;"/></g></g><g class="groups" transform="translate(434.828125,0)"><g class="traces" transform="translate(0,20.8)" style="opacity: 1;"><text class="legendtext" text-anchor="start" x="40" y="8.58" style="font-family: Arial, sans-serif; font-size: 22px; fill: rgb(34, 34, 34); fill-opacity: 1; white-space: pre;">EP sw kg N-eqv.</text><g class="layers"><g class="legendfill"><path class="js-fill" d="M5,-2h30v6h-30z" style="stroke-width: 0; fill: rgb(82, 188, 163); fill-opacity: 0.5;"/></g><g class="legendlines"><path class="js-line" d="M5,-2h30" style="fill: none; stroke: rgb(82, 188, 163); stroke-opacity: 1; stroke-width: 2px;"/></g><g class="legendsymbols"><g class="legendpoints"/></g></g><rect class="legendtoggle" x="0" y="-15.8" width="203.078125" height="31.6" style="fill: rgb(0, 0, 0); fill-opacity: 0;"/></g></g><g class="groups" transform="translate(640.40625,0)"><g class="traces" transform="translate(0,20.8)" style="opacity: 1;"><text class="legendtext" text-anchor="start" x="40" y="8.58" style="font-family: Arial, sans-serif; font-size: 22px; fill: rgb(34, 34, 34); fill-opacity: 1; white-space: pre;">EP ter Mole of N-eqv.</text><g class="layers"><g class="legendfill"><path class="js-fill" d="M5,-2h30v6h-30z" style="stroke-width: 0; fill: rgb(153, 201, 69); fill-opacity: 0.5;"/></g><g class="legendlines"><path class="js-line" d="M5,-2h30" style="fill: none; stroke: rgb(153, 201, 69); stroke-opacity: 1; stroke-width: 2px;"/></g><g class="legendsymbols"><g class="legendpoints"/></g></g><rect class="legendtoggle" x="0" y="-15.8" width="250.78125" height="31.6" style="fill: rgb(0, 0, 0); fill-opacity: 0;"/></g></g><g class="groups" transform="translate(0,31.6)"><g class="traces" transform="translate(0,20.8)" style="opacity: 1;"><text class="legendtext" text-anchor="start" x="40" y="8.58" style="font-family: Arial, sans-serif; font-size: 22px; fill: rgb(34, 34, 34); fill-opacity: 1; white-space: pre;">ODP kg CFC-11-eqv.</text><g class="layers"><g class="legendfill"><path class="js-fill" d="M5,-2h30v6h-30z" style="stroke-width: 0; fill: rgb(204, 97, 176); fill-opacity: 0.5;"/></g><g class="legendlines"><path class="js-line" d="M5,-2h30" style="fill: none; stroke: rgb(204, 97, 176); stroke-opacity: 1; stroke-width: 2px;"/></g><g class="legendsymbols"><g class="legendpoints"/></g></g><rect class="legendtoggle" x="0" y="-15.8" width="247.890625" height="31.6" style="fill: rgb(0, 0, 0); fill-opacity: 0;"/></g></g><g class="groups" transform="translate(250.390625,31.6)"><g class="traces" transform="translate(0,20.8)" style="opacity: 1;"><text class="legendtext" text-anchor="start" x="40" y="8.58" style="font-family: Arial, sans-serif; font-size: 22px; fill: rgb(34, 34, 34); fill-opacity: 1; white-space: pre;">PM kg PM2.5-eqv.</text><g class="layers"><g class="legendfill"><path class="js-fill" d="M5,-2h30v6h-30z" style="stroke-width: 0; fill: rgb(36, 121, 108); fill-opacity: 0.5;"/></g><g class="legendlines"><path class="js-line" d="M5,-2h30" style="fill: none; stroke: rgb(36, 121, 108); stroke-opacity: 1; stroke-width: 2px;"/></g><g class="legendsymbols"><g class="legendpoints"/></g></g><rect class="legendtoggle" x="0" y="-15.8" width="221.828125" height="31.6" style="fill: rgb(0, 0, 0); fill-opacity: 0;"/></g></g><g class="groups" transform="translate(474.71875,31.6)"><g class="traces" transform="translate(0,20.8)" style="opacity: 1;"><text class="legendtext" text-anchor="start" x="40" y="8.58" style="font-family: Arial, sans-serif; font-size: 22px; fill: rgb(34, 34, 34); fill-opacity: 1; white-space: pre;">POCP kg NMVOC-eqv.</text><g class="layers"><g class="legendfill"><path class="js-fill" d="M5,-2h30v6h-30z" style="stroke-width: 0; fill: rgb(218, 165, 27); fill-opacity: 0.5;"/></g><g class="legendlines"><path class="js-line" d="M5,-2h30" style="fill: none; stroke: rgb(218, 165, 27); stroke-opacity: 1; stroke-width: 2px;"/></g><g class="legendsymbols"><g class="legendpoints"/></g></g><rect class="legendtoggle" x="0" y="-15.8" width="269.078125" height="31.6" style="fill: rgb(0, 0, 0); fill-opacity: 0;"/></g></g><g class="groups" transform="translate(746.296875,31.6)"><g class="traces" transform="translate(0,20.8)" style="opacity: 1;"><text class="legendtext" text-anchor="start" x="40" y="8.58" style="font-family: Arial, sans-serif; font-size: 22px; fill: rgb(34, 34, 34); fill-opacity: 1; white-space: pre;">ADP kg Sb-eqv.</text><g class="layers"><g class="legendfill"><path class="js-fill" d="M5,-2h30v6h-30z" style="stroke-width: 0; fill: rgb(47, 138, 196); fill-opacity: 0.5;"/></g><g class="legendlines"><path class="js-line" d="M5,-2h30" style="fill: none; stroke: rgb(47, 138, 196); stroke-opacity: 1; stroke-width: 2px;"/></g><g class="legendsymbols"><g class="legendpoints"/></g></g><rect class="legendtoggle" x="0" y="-15.8" width="197.984375" height="31.6" style="fill: rgb(0, 0, 0); fill-opacity: 0;"/></g></g></g><rect class="scrollbar" rx="20" ry="3" width="0" height="0" style="fill: rgb(128, 139, 164); fill-opacity: 1;" x="0" y="0"/></g><g class="g-gtitle"/><g class="g-xtitle"><text class="xtitle" x="628" y="647.0291015625" text-anchor="middle" style="opacity: 1; font-family: Arial, sans-serif; font-size: 26px; fill: rgb(34, 34, 34); fill-opacity: 1; white-space: pre;">Year</text></g><g class="g-ytitle" transform="translate(14.828125,0)"><text class="ytitle" transform="rotate(-90,9.171484375000006,298.5)" x="9.171484375000006" y="298.5" text-anchor="middle" style="opacity: 1; font-family: Arial, sans-serif; font-size: 26px; fill: rgb(34, 34, 34); fill-opacity: 1; white-space: pre;">Impact Value</text></g></g></svg>