<svg class="main-svg" xmlns="http://www.w3.org/2000/svg" xmlns:xlink="http://www.w3.org/1999/xlink" width="1200" height="720" style="" viewBox="0 0 1200 720"><rect x="0" y="0" width="1200" height="720" style="fill: rgb(255, 255, 255); fill-opacity: 1;"/><defs id="defs-5c1a77"><g class="clips"><clipPath id="clip5c1a77xyplot" class="plotclip"><rect width="1110" height="532"/></clipPath><clipPath class="axesclip" id="clip5c1a77x"><rect x="60" y="0" width="1110" height="720"/></clipPath><clipPath class="axesclip" id="clip5c1a77y"><rect x="0" y="50" width="1200" height="532"/></clipPath><clipPath class="axesclip" id="clip5c1a77xy"><rect x="60" y="50" width="1110" height="532"/></clipPath></g><g class="gradients"/><g class="patterns"/></defs><g class="bglayer"/><g class="layer-below"><g class="imagelayer"/><g class="shapelayer"/></g><g class="cartesianlayer"><g class="subplot xy"><g class="layer-subplot"><g class="shapelayer"/><g class="imagelayer"/></g><g class="minor-gridlayer"><g class="x"/><g class="y"/></g><g class="gridlayer"><g class="x"><path class="xgrid crisp" transform="translate(129.38,0)" d="M0,50v532" style="stroke: rgb(235, 240, 248); stroke-opacity: 1; stroke-width: 1px;"/><path class="xgrid crisp" transform="translate(198.75,0)" d="M0,50v532" style="stroke: rgb(235, 240, 248); stroke-opacity: 1; stroke-width: 1px;"/><path class="xgrid crisp" transform="translate(268.13,0)" d="M0,50v532" style="stroke: rgb(235, 240, 248); stroke-opacity: 1; stroke-width: 1px;"/><path class="xgrid crisp" transform="translate(337.5,0)" d="M0,50v532" style="stroke: rgb(235, 240, 248); stroke-opacity: 1; stroke-width: 1px;"/><path class="xgrid crisp" transform="translate(406.88,0)" d="M0,50v532" style="stroke: rgb(235, 240, 248); stroke-opacity: 1; stroke-width: 1px;"/><path class="xgrid crisp" transform="translate(476.25,0)" d="M0,50v532" style="stroke: rgb(235, 240, 248); stroke-opacity: 1; stroke-width: 1px;"/><path class="xgrid crisp" transform="translate(545.63,0)" d="M0,50v532" style="stroke: rgb(235, 240, 248); stroke-opacity: 1; stroke-width: 1px;"/><path class="xgrid crisp" transform="translate(615,0)" d="M0,50v532" style="stroke: rgb(235, 240, 248); stroke-opacity: 1; stroke-width: 1px;"/><path class="xgrid crisp" transform="translate(684.38,0)" d="M0,50v532" style="stroke: rgb(235, 240, 248); stroke-opacity: 1; stroke-width: 1px;"/><path class="xgrid crisp" transform="translate(753.75,0)" d="M0,50v532" style="stroke: rgb(235, 240, 248); stroke-opacity: 1; stroke-width: 1px;"/><path class="xgrid crisp" transform="translate(823.13,0)" d="M0,50v532" style="stroke: rgb(235, 240, 248); stroke-opacity: 1; stroke-width: 1px;"/><path class="xgrid crisp" transform="translate(892.5,0)" d="M0,50v532" style="stroke: rgb(235, 240, 248); stroke-opacity: 1; stroke-width: 1px;"/><path class="xgrid crisp" transform="translate(961.88,0)" d="M0,50v532" style="stroke: rgb(235, 240, 248); stroke-opacity: 1; stroke-width: 1px;"/><path class="xgrid crisp" transform="translate(1031.25,0)" d="M0,50v532" style="stroke: rgb(235, 240, 248); stroke-opacity: 1; stroke-width: 1px;"/><path class="xgrid crisp" transform="translate(1100.63,0)" d="M0,50v532" style="stroke: rgb(235, 240, 248); stroke-opacity: 1; stroke-width: 1px;"/></g><g class="y"><path class="ygrid crisp" transform="translate(0,512.8299999999999)" d="M60,0h1110" style="stroke: rgb(235, 240, 248); stroke-opacity: 1; stroke-width: 1px;"/><path class="ygrid crisp" transform="translate(0,443.65)" d="M60,0h1110" style="stroke: rgb(235, 240, 248); stroke-opacity: 1; stroke-width: 1px;"/><path class="ygrid crisp" transform="translate(0,374.48)" d="M60,0h1110" style="stroke: rgb(235, 240, 248); stroke-opacity: 1; stroke-width: 1px;"/><path class="ygrid crisp" transform="translate(0,305.3)" d="M60,0h1110" style="stroke: rgb(235, 240, 248); stroke-opacity: 1; stroke-width: 1px;"/><path class="ygrid crisp" transform="translate(0,236.13)" d="M60,0h1110" style="stroke: rgb(235, 240, 248); stroke-opacity: 1; stroke-width: 1px;"/><path class="ygrid crisp" transform="translate(0,166.95999999999998)" d="M60,0h1110" style="stroke: rgb(235, 240, 248); stroke-opacity: 1; stroke-width: 1px;"/><path class="ygrid crisp" transform="translate(0,97.78)" d="M60,0h1110" style="stroke: rgb(235, 240, 248); stroke-opacity: 1; stroke-width: 1px;"/></g></g><g class="zerolinelayer"><path class="yzl zl crisp" transform="translate(0,582)" d="M60,0h1110" style="stroke: rgb(235, 240, 248); stroke-opacity: 1; stroke-width: 2px;"/></g><g class="layer-between"><g class="shapelayer"/><g class="imagelayer"/></g><path class="xlines-below"/><path class="ylines-below"/><g class="overlines-below"/><g class="xaxislayer-below"/><g class="yaxislayer-below"/><g class="overaxes-below"/><g class="overplot"><g class="xy" transform="translate(60,50)" clip-path="url(#clip5c1a77xyplot)"><g class="scatterlayer mlayer"><g class="trace scatter trace110b61" style="stroke-miterlimit: 2;"><g class="fills"><g><path class="js-fill" d="M1110,532L0,532L0,429.3L69.38,434.61L138.75,434.77L208.13,436.06L277.5,433.72L416.25,430.19L485.63,433.21L555,435.35L624.38,436.64L693.75,442.37L763.13,445.14L832.5,455.46L901.88,460.77L971.25,455.06L1040.63,448.39L1110,453.8" style="fill: rgb(99, 110, 250); fill-opacity: 0.5; stroke-width: 0;"/></g><g><path class="js-fill" d="M0,366.88L69.38,374.92L138.75,373.52L208.13,377.64L277.5,372.18L346.88,367.78L416.25,366.35L624.38,378.61L693.75,386.08L763.13,389.39L832.5,409.74L901.88,421.79L971.25,409.39L1040.63,399.39L1110,411.92L1110,453.8L1040.63,448.39L971.25,455.06L901.88,460.77L832.5,455.46L763.13,445.14L693.75,442.37L624.38,436.64L555,435.35L485.63,433.21L416.25,430.19L277.5,433.72L208.13,436.06L138.75,434.77L69.38,434.61L0,429.3Z" style="fill: rgb(239, 85, 59); fill-opacity: 0.5; stroke-width: 0;"/></g></g><g class="errorbars"/><g class="lines"><path class="js-line" d="M0,429.3L69.38,434.61L138.75,434.77L208.13,436.06L277.5,433.72L416.25,430.19L485.63,433.21L555,435.35L624.38,436.64L693.75,442.37L763.13,445.14L832.5,455.46L901.88,460.77L971.25,455.06L1040.63,448.39L1110,453.8" style="vector-effect: none; fill: none; stroke: rgb(99, 110, 250); stroke-opacity: 1; stroke-width: 2px; opacity: 1;"/></g><g class="points"/><g class="text"/></g><g class="trace scatter tracef89782" style="stroke-miterlimit: 2;"><g class="fills"><g><path class="js-fill" d="M0,333.34L69.38,342.76L138.75,341.18L208.13,345.89L277.5,339.4L346.88,334.32L416.25,332.67L555,343.19L624.38,347.18L693.75,356.2L763.13,360.21L832.5,384.43L901.88,398.76L971.25,383.96L1040.63,372.39L1110,387.4L1110,411.92L1040.63,399.39L971.25,409.39L901.88,421.79L832.5,409.74L763.13,389.39L693.75,386.08L624.38,378.61L416.25,366.35L346.88,367.78L277.5,372.18L208.13,377.64L138.75,373.52L69.38,374.92L0,366.88Z" style="fill: rgb(0, 204, 150); fill-opacity: 0.5; stroke-width: 0;"/></g></g><g class="errorbars"/><g class="lines"><path class="js-line" d="M0,366.88L69.38,374.92L138.75,373.52L208.13,377.64L277.5,372.18L346.88,367.78L416.25,366.35L624.38,378.61L693.75,386.08L763.13,389.39L832.5,409.74L901.88,421.79L971.25,409.39L1040.63,399.39L1110,411.92" style="vector-effect: none; fill: none; stroke: rgb(239, 85, 59); stroke-opacity: 1; stroke-width: 2px; opacity: 1;"/></g><g class="points"/><g class="text"/></g><g class="trace scatter trace4a1eae" style="stroke-miterlimit: 2;"><g class="fills"><g><path class="js-fill" d="M0,99.26L69.38,118.26L138.75,117.28L208.13,121.66L277.5,108.38L346.88,99.44L416.25,94.01L555,115.49L624.38,119.42L693.75,141.96L763.13,152.99L832.5,198.02L901.88,221.81L971.25,195.75L1040.63,170.71L1110,195.4L1110,387.4L1040.63,372.39L971.25,383.96L901.88,398.76L832.5,384.43L763.13,360.21L693.75,356.2L624.38,347.18L555,343.19L416.25,332.67L346.88,334.32L277.5,339.4L208.13,345.89L138.75,341.18L69.38,342.76L0,333.34Z" style="fill: rgb(171, 99, 250); fill-opacity: 0.5; stroke-width: 0;"/></g></g><g class="errorbars"/><g class="lines"><path class="js-line" d="M0,333.34L69.38,342.76L138.75,341.18L208.13,345.89L277.5,339.4L346.88,334.32L416.25,332.67L555,343.19L624.38,347.18L693.75,356.2L763.13,360.21L832.5,384.43L901.88,398.76L971.25,383.96L1040.63,372.39L1110,387.4" style="vector-effect: none; fill: none; stroke: rgb(0, 204, 150); stroke-opacity: 1; stroke-width: 2px; opacity: 1;"/></g><g class="points"/><g class="text"/></g><g class="trace scatter trace5f9114" style="stroke-miterlimit: 2;"><g class="fills"><g><path class="js-fill" d="M0,99.26L69.38,118.26L138.75,117.28L208.13,121.66L277.5,108.38L346.88,99.44L416.25,94.01L555,115.49L624.38,119.42L693.75,141.96L763.13,152.99L832.5,198.02L901.88,221.81L971.25,195.75L1040.63,170.71L1110,195.39L1110,195.4L1040.63,170.71L971.25,195.75L901.88,221.81L832.5,198.02L763.13,152.99L693.75,141.96L624.38,119.42L555,115.49L416.25,94.01L346.88,99.44L277.5,108.38L208.13,121.66L138.75,117.28L69.38,118.26L0,99.26Z" style="fill: rgb(255, 161, 90); fill-opacity: 0.5; stroke-width: 0;"/></g></g><g class="errorbars"/><g class="lines"><path class="js-line" d="M0,99.26L69.38,118.26L138.75,117.28L208.13,121.66L277.5,108.38L346.88,99.44L416.25,94.01L555,115.49L624.38,119.42L693.75,141.96L763.13,152.99L832.5,198.02L901.88,221.81L971.25,195.75L1040.63,170.71L1110,195.4" style="vector-effect: none; fill: none; stroke: rgb(171, 99, 250); stroke-opacity: 1; stroke-width: 2px; opacity: 1;"/></g><g class="points"/><g class="text"/></g><g class="trace scatter tracee05c10" style="stroke-miterlimit: 2;"><g class="fills"><g><path class="js-fill" d="M0,93.16L69.38,112.39L138.75,111.27L208.13,115.76L277.5,102.33L346.88,93.14L416.25,87.6L555,109.22L624.38,113.27L693.75,136.07L763.13,147.2L832.5,192.66L901.88,216.59L1040.63,164.71L1110,189.52L1110,195.39L1040.63,170.71L971.25,195.75L901.88,221.81L832.5,198.02L763.13,152.99L693.75,141.96L624.38,119.42L555,115.49L416.25,94.01L346.88,99.44L277.5,108.38L208.13,121.66L138.75,117.28L69.38,118.26L0,99.26Z" style="fill: rgb(25, 211, 243); fill-opacity: 0.5; stroke-width: 0;"/></g></g><g class="errorbars"/><g class="lines"><path class="js-line" d="M0,99.26L69.38,118.26L138.75,117.28L208.13,121.66L277.5,108.38L346.88,99.44L416.25,94.01L555,115.49L624.38,119.42L693.75,141.96L763.13,152.99L832.5,198.02L901.88,221.81L971.25,195.75L1040.63,170.71L1110,195.39" style="vector-effect: none; fill: none; stroke: rgb(255, 161, 90); stroke-opacity: 1; stroke-width: 2px; opacity: 1;"/></g><g class="points"/><g class="text"/></g><g class="trace scatter traceb1767d" style="stroke-miterlimit: 2;"><g class="fills"><g><path class="js-fill" d="M0,32.15L69.38,53.67L138.75,52.95L208.13,57.39L277.5,42.41L346.88,32.8L416.25,26.66L555,51.35L624.38,54.91L693.75,80.89L763.13,93.79L832.5,144.17L901.88,170.28L1040.63,112.72L1110,139.65L1110,189.52L1040.63,164.71L901.88,216.59L832.5,192.66L763.13,147.2L693.75,136.07L624.38,113.27L555,109.22L416.25,87.6L346.88,93.14L277.5,102.33L208.13,115.76L138.75,111.27L69.38,112.39L0,93.16Z" style="fill: rgb(255, 102, 146); fill-opacity: 0.5; stroke-width: 0;"/></g></g><g class="errorbars"/><g class="lines"><path class="js-line" d="M0,93.16L69.38,112.39L138.75,111.27L208.13,115.76L277.5,102.33L346.88,93.14L416.25,87.6L555,109.22L624.38,113.27L693.75,136.07L763.13,147.2L832.5,192.66L901.88,216.59L1040.63,164.71L1110,189.52" style="vector-effect: none; fill: none; stroke: rgb(25, 211, 243); stroke-opacity: 1; stroke-width: 2px; opacity: 1;"/></g><g class="points"/><g class="text"/></g><g class="trace scatter trace264223" style="stroke-miterlimit: 2;"><g class="fills"><g><path class="js-fill" d="M0,32.11L69.38,53.63L138.75,52.91L208.13,57.34L277.5,42.35L346.88,32.74L416.25,26.6L555,51.26L624.38,54.83L693.75,80.79L763.13,93.69L832.5,144.06L901.88,170.16L1040.63,112.58L1110,139.5L1110,139.65L1040.63,112.72L901.88,170.28L832.5,144.17L763.13,93.79L693.75,80.89L624.38,54.91L555,51.35L416.25,26.66L346.88,32.8L277.5,42.41L208.13,57.39L138.75,52.95L69.38,53.67L0,32.15Z" style="fill: rgb(182, 232, 128); fill-opacity: 0.5; stroke-width: 0;"/></g></g><g class="errorbars"/><g class="lines"><path class="js-line" d="M0,32.15L69.38,53.67L138.75,52.95L208.13,57.39L277.5,42.41L346.88,32.8L416.25,26.66L555,51.35L624.38,54.91L693.75,80.89L763.13,93.79L832.5,144.17L901.88,170.28L1040.63,112.72L1110,139.65" style="vector-effect: none; fill: none; stroke: rgb(255, 102, 146); stroke-opacity: 1; stroke-width: 2px; opacity: 1;"/></g><g class="points"/><g class="text"/></g><g class="trace scatter tracebff1c0" style="stroke-miterlimit: 2;"><g class="fills"/><g class="errorbars"/><g class="lines"><path class="js-line" d="M0,32.11L69.38,53.63L138.75,52.91L208.13,57.34L277.5,42.35L346.88,32.74L416.25,26.6L555,51.26L624.38,54.83L693.75,80.79L763.13,93.69L832.5,144.06L901.88,170.16L1040.63,112.58L1110,139.5" style="vector-effect: none; fill: none; stroke: rgb(182, 232, 128); stroke-opacity: 1; stroke-width: 2px; opacity: 1;"/></g><g class="points"/><g class="text"/></g></g></g></g><path class="xlines-above crisp" d="M0,0" style="fill: none;"/><path class="ylines-above crisp" d="M0,0" style="fill: none;"/><g class="overlines-above"/><g class="xaxislayer-above"><g class="xtick"><text text-anchor="end" x="0" y="599" transform="translate(60,0) rotate(-45,0,591)" style="font-family: Arial, sans-serif; font-size: 16px; fill: rgb(34, 34, 34); fill-opacity: 1; white-space: pre; opacity: 1;">2007</text></g><g class="xtick"><text text-anchor="end" x="0" y="599" style="font-family: Arial, sans-serif; font-size: 16px; fill: rgb(34, 34, 34); fill-opacity: 1; white-space: pre; opacity: 1;" transform="translate(129.38,0) rotate(-45,0,591)">2008</text></g><g class="xtick"><text text-anchor="end" x="0" y="599" style="font-family: Arial, sans-serif; font-size: 16px; fill: rgb(34, 34, 34); fill-opacity: 1; white-space: pre; opacity: 1;" transform="translate(198.75,0) rotate(-45,0,591)">2009</text></g><g class="xtick"><text text-anchor="end" x="0" y="599" style="font-family: Arial, sans-serif; font-size: 16px; fill: rgb(34, 34, 34); fill-opacity: 1; white-space: pre; opacity: 1;" transform="translate(268.13,0) rotate(-45,0,591)">2010</text></g><g class="xtick"><text text-anchor="end" x="0" y="599" style="font-family: Arial, sans-serif; font-size: 16px; fill: rgb(34, 34, 34); fill-opacity: 1; white-space: pre; opacity: 1;" transform="translate(337.5,0) rotate(-45,0,591)">2011</text></g><g class="xtick"><text text-anchor="end" x="0" y="599" style="font-family: Arial, sans-serif; font-size: 16px; fill: rgb(34, 34, 34); fill-opacity: 1; white-space: pre; opacity: 1;" transform="translate(406.88,0) rotate(-45,0,591)">2012</text></g><g class="xtick"><text text-anchor="end" x="0" y="599" style="font-family: Arial, sans-serif; font-size: 16px; fill: rgb(34, 34, 34); fill-opacity: 1; white-space: pre; opacity: 1;" transform="translate(476.25,0) rotate(-45,0,591)">2013</text></g><g class="xtick"><text text-anchor="end" x="0" y="599" style="font-family: Arial, sans-serif; font-size: 16px; fill: rgb(34, 34, 34); fill-opacity: 1; white-space: pre; opacity: 1;" transform="translate(545.63,0) rotate(-45,0,591)">2014</text></g><g class="xtick"><text text-anchor="end" x="0" y="599" style="font-family: Arial, sans-serif; font-size: 16px; fill: rgb(34, 34, 34); fill-opacity: 1; white-space: pre; opacity: 1;" transform="translate(615,0) rotate(-45,0,591)">2015</text></g><g class="xtick"><text text-anchor="end" x="0" y="599" style="font-family: Arial, sans-serif; font-size: 16px; fill: rgb(34, 34, 34); fill-opacity: 1; white-space: pre; opacity: 1;" transform="translate(684.38,0) rotate(-45,0,591)">2016</text></g><g class="xtick"><text text-anchor="end" x="0" y="599" style="font-family: Arial, sans-serif; font-size: 16px; fill: rgb(34, 34, 34); fill-opacity: 1; white-space: pre; opacity: 1;" transform="translate(753.75,0) rotate(-45,0,591)">2017</text></g><g class="xtick"><text text-anchor="end" x="0" y="599" style="font-family: Arial, sans-serif; font-size: 16px; fill: rgb(34, 34, 34); fill-opacity: 1; white-space: pre; opacity: 1;" transform="translate(823.13,0) rotate(-45,0,591)">2018</text></g><g class="xtick"><text text-anchor="end" x="0" y="599" style="font-family: Arial, sans-serif; font-size: 16px; fill: rgb(34, 34, 34); fill-opacity: 1; white-space: pre; opacity: 1;" transform="translate(892.5,0) rotate(-45,0,591)">2019</text></g><g class="xtick"><text text-anchor="end" x="0" y="599" style="font-family: Arial, sans-serif; font-size: 16px; fill: rgb(34, 34, 34); fill-opacity: 1; white-space: pre; opacity: 1;" transform="translate(961.88,0) rotate(-45,0,591)">2020</text></g><g class="xtick"><text text-anchor="end" x="0" y="599" style="font-family: Arial, sans-serif; font-size: 16px; fill: rgb(34, 34, 34); fill-opacity: 1; white-space: pre; opacity: 1;" transform="translate(1031.25,0) rotate(-45,0,591)">2021</text></g><g class="xtick"><text text-anchor="end" x="0" y="599" style="font-family: Arial, sans-serif; font-size: 16px; fill: rgb(34, 34, 34); fill-opacity: 1; white-space: pre; opacity: 1;" transform="translate(1100.63,0) rotate(-45,0,591)">2022</text></g><g class="xtick"><text text-anchor="end" x="0" y="599" style="font-family: Arial, sans-serif; font-size: 16px; fill: rgb(34, 34, 34); fill-opacity: 1; white-space: pre; opacity: 1;" transform="translate(1170,0) rotate(-45,0,591)">2023</text></g></g><g class="yaxislayer-above"><g class="ytick"><text text-anchor="end" x="59" y="5.6" transform="translate(0,582)" style="font-family: Arial, sans-serif; font-size: 16px; fill: rgb(34, 34, 34); fill-opacity: 1; white-space: pre; opacity: 1;">0</text></g><g class="ytick"><text text-anchor="end" x="59" y="5.6" style="font-family: Arial, sans-serif; font-size: 16px; fill: rgb(34, 34, 34); fill-opacity: 1; white-space: pre; opacity: 1;" transform="translate(0,512.8299999999999)">0.05</text></g><g class="ytick"><text text-anchor="end" x="59" y="5.6" style="font-family: Arial, sans-serif; font-size: 16px; fill: rgb(34, 34, 34); fill-opacity: 1; white-space: pre; opacity: 1;" transform="translate(0,443.65)">0.1</text></g><g class="ytick"><text text-anchor="end" x="59" y="5.6" style="font-family: Arial, sans-serif; font-size: 16px; fill: rgb(34, 34, 34); fill-opacity: 1; white-space: pre; opacity: 1;" transform="translate(0,374.48)">0.15</text></g><g class="ytick"><text text-anchor="end" x="59" y="5.6" style="font-family: Arial, sans-serif; font-size: 16px; fill: rgb(34, 34, 34); fill-opacity: 1; white-space: pre; opacity: 1;" transform="translate(0,305.3)">0.2</text></g><g class="ytick"><text text-anchor="end" x="59" y="5.6" style="font-family: Arial, sans-serif; font-size: 16px; fill: rgb(34, 34, 34); fill-opacity: 1; white-space: pre; opacity: 1;" transform="translate(0,236.13)">0.25</text></g><g class="ytick"><text text-anchor="end" x="59" y="5.6" style="font-family: Arial, sans-serif; font-size: 16px; fill: rgb(34, 34, 34); fill-opacity: 1; white-space: pre; opacity: 1;" transform="translate(0,166.95999999999998)">0.3</text></g><g class="ytick"><text text-anchor="end" x="59" y="5.6" style="font-family: Arial, sans-serif; font-size: 16px; fill: rgb(34, 34, 34); fill-opacity: 1; white-space: pre; opacity: 1;" transform="translate(0,97.78)">0.35</text></g></g><g class="overaxes-above"/></g></g><g class="polarlayer"/><g class="smithlayer"/><g class="ternarylayer"/><g class="geolayer"/><g class="funnelarealayer"/><g class="pielayer"/><g class="iciclelayer"/><g class="treemaplayer"/><g class="sunburstlayer"/><g class="glimages"/><defs id="topdefs-5c1a77"><g class="clips"/><clipPath id="legend5c1a77"><rect width="1219" height="58" x="0" y="0"/></clipPath></defs><g class="layer-above"><g class="imagelayer"/><g class="shapelayer"/></g><g class="infolayer"><g class="legend" pointer-events="all" transform="translate(0,661.8)"><rect class="bg" shape-rendering="crispEdges" style="stroke: rgb(68, 68, 68); stroke-opacity: 1; fill: rgb(255, 255, 255); fill-opacity: 1; stroke-width: 0px;" width="1219" height="58" x="0" y="0"/><g class="scrollbox" transform="" clip-path="url(#legend5c1a77)"><text class="legendtitletext" text-anchor="start" x="2" y="24.7" style="font-family: Arial, sans-serif; font-size: 19px; fill: rgb(34, 34, 34); fill-opacity: 1; white-space: pre;">Impact Category</text><g class="groups" transform=""><g class="traces" transform="translate(149.892578125,16.9)" style="opacity: 1;"><text class="legendtext" text-anchor="start" x="40" y="6.24" style="font-family: Arial, sans-serif; font-size: 16px; fill: rgb(34, 34, 34); fill-opacity: 1; white-space: pre;">AP Mole of H+-eqv.</text><g class="layers"><g class="legendfill"><path class="js-fill" d="M5,-2h30v6h-30z" style="stroke-width: 0; fill: rgb(99, 110, 250); fill-opacity: 0.5;"/></g><g class="legendlines"><path class="js-line" d="M5,-2h30" style="fill: none; stroke: rgb(99, 110, 250); stroke-opacity: 1; stroke-width: 2px;"/></g><g class="legendsymbols"><g class="legendpoints"/></g></g><rect class="legendtoggle" x="0" y="-11.9" width="181.203125" height="23.8" style="fill: rgb(0, 0, 0); fill-opacity: 0;"/></g></g><g class="groups" transform="translate(183.703125,0)"><g class="traces" transform="translate(149.892578125,16.9)" style="opacity: 1;"><text class="legendtext" text-anchor="start" x="40" y="6.24" style="font-family: Arial, sans-serif; font-size: 16px; fill: rgb(34, 34, 34); fill-opacity: 1; white-space: pre;">EP fw kg P-eqv.</text><g class="layers"><g class="legendfill"><path class="js-fill" d="M5,-2h30v6h-30z" style="stroke-width: 0; fill: rgb(239, 85, 59); fill-opacity: 0.5;"/></g><g class="legendlines"><path class="js-line" d="M5,-2h30" style="fill: none; stroke: rgb(239, 85, 59); stroke-opacity: 1; stroke-width: 2px;"/></g><g class="legendsymbols"><g class="legendpoints"/></g></g><rect class="legendtoggle" x="0" y="-11.9" width="154.84375" height="23.8" style="fill: rgb(0, 0, 0); fill-opacity: 0;"/></g></g><g class="groups" transform="translate(341.046875,0)"><g class="traces" transform="translate(149.892578125,16.9)" style="opacity: 1;"><text class="legendtext" text-anchor="start" x="40" y="6.24" style="font-family: Arial, sans-serif; font-size: 16px; fill: rgb(34, 34, 34); fill-opacity: 1; white-space: pre;">EP sw kg N-eqv.</text><g class="layers"><g class="legendfill"><path class="js-fill" d="M5,-2h30v6h-30z" style="stroke-width: 0; fill: rgb(0, 204, 150); fill-opacity: 0.5;"/></g><g class="legendlines"><path class="js-line" d="M5,-2h30" style="fill: none; stroke: rgb(0, 204, 150); stroke-opacity: 1; stroke-width: 2px;"/></g><g class="legendsymbols"><g class="legendpoints"/></g></g><rect class="legendtoggle" x="0" y="-11.9" width="159.28125" height="23.8" style="fill: rgb(0, 0, 0); fill-opacity: 0;"/></g></g><g class="groups" transform="translate(502.828125,0)"><g class="traces" transform="translate(149.892578125,16.9)" style="opacity: 1;"><text class="legendtext" text-anchor="start" x="40" y="6.24" style="font-family: Arial, sans-serif; font-size: 16px; fill: rgb(34, 34, 34); fill-opacity: 1; white-space: pre;">EP ter Mole of N-eqv.</text><g class="layers"><g class="legendfill"><path class="js-fill" d="M5,-2h30v6h-30z" style="stroke-width: 0; fill: rgb(171, 99, 250); fill-opacity: 0.5;"/></g><g class="legendlines"><path class="js-line" d="M5,-2h30" style="fill: none; stroke: rgb(171, 99, 250); stroke-opacity: 1; stroke-width: 2px;"/></g><g class="legendsymbols"><g class="legendpoints"/></g></g><rect class="legendtoggle" x="0" y="-11.9" width="193.96875" height="23.8" style="fill: rgb(0, 0, 0); fill-opacity: 0;"/></g></g><g class="groups" transform="translate(699.296875,0)"><g class="traces" transform="translate(149.892578125,16.9)" style="opacity: 1;"><text class="legendtext" text-anchor="start" x="40" y="6.24" style="font-family: Arial, sans-serif; font-size: 16px; fill: rgb(34, 34, 34); fill-opacity: 1; white-space: pre;">ODP kg CFC-11-eqv.</text><g class="layers"><g class="legendfill"><path class="js-fill" d="M5,-2h30v6h-30z" style="stroke-width: 0; fill: rgb(255, 161, 90); fill-opacity: 0.5;"/></g><g class="legendlines"><path class="js-line" d="M5,-2h30" style="fill: none; stroke: rgb(255, 161, 90); stroke-opacity: 1; stroke-width: 2px;"/></g><g class="legendsymbols"><g class="legendpoints"/></g></g><rect class="legendtoggle" x="0" y="-11.9" width="191.875" height="23.8" style="fill: rgb(0, 0, 0); fill-opacity: 0;"/></g></g><g class="groups" transform="translate(893.671875,0)"><g class="traces" transform="translate(149.892578125,16.9)" style="opacity: 1;"><text class="legendtext" text-anchor="start" x="40" y="6.24" style="font-family: Arial, sans-serif; font-size: 16px; fill: rgb(34, 34, 34); fill-opacity: 1; white-space: pre;">PM kg PM2.5-eqv.</text><g class="layers"><g class="legendfill"><path class="js-fill" d="M5,-2h30v6h-30z" style="stroke-width: 0; fill: rgb(25, 211, 243); fill-opacity: 0.5;"/></g><g class="legendlines"><path class="js-line" d="M5,-2h30" style="fill: none; stroke: rgb(25, 211, 243); stroke-opacity: 1; stroke-width: 2px;"/></g><g class="legendsymbols"><g class="legendpoints"/></g></g><rect class="legendtoggle" x="0" y="-11.9" width="172.921875" height="23.8" style="fill: rgb(0, 0, 0); fill-opacity: 0;"/></g></g><g class="groups" transform="translate(0,23.8)"><g class="traces" transform="translate(149.892578125,16.9)" style="opacity: 1;"><text class="legendtext" text-anchor="start" x="40" y="6.24" style="font-family: Arial, sans-serif; font-size: 16px; fill: rgb(34, 34, 34); fill-opacity: 1; white-space: pre;">POCP kg NMVOC-eqv.</text><g class="layers"><g class="legendfill"><path class="js-fill" d="M5,-2h30v6h-30z" style="stroke-width: 0; fill: rgb(255, 102, 146); fill-opacity: 0.5;"/></g><g class="legendlines"><path class="js-line" d="M5,-2h30" style="fill: none; stroke: rgb(255, 102, 146); stroke-opacity: 1; stroke-width: 2px;"/></g><g class="legendsymbols"><g class="legendpoints"/></g></g><rect class="legendtoggle" x="0" y="-11.9" width="207.28125" height="23.8" style="fill: rgb(0, 0, 0); fill-opacity: 0;"/></g></g><g class="groups" transform="translate(209.78125,23.8)"><g class="traces" transform="translate(149.892578125,16.9)" style="opacity: 1;"><text class="legendtext" text-anchor="start" x="40" y="6.24" style="font-family: Arial, sans-serif; font-size: 16px; fill: rgb(34, 34, 34); fill-opacity: 1; white-space: pre;">ADP kg Sb-eqv.</text><g class="layers"><g class="legendfill"><path class="js-fill" d="M5,-2h30v6h-30z" style="stroke-width: 0; fill: rgb(182, 232, 128); fill-opacity: 0.5;"/></g><g class="legendlines"><path class="js-line" d="M5,-2h30" style="fill: none; stroke: rgb(182, 232, 128); stroke-opacity: 1; stroke-width: 2px;"/></g><g class="legendsymbols"><g class="legendpoints"/></g></g><rect class="legendtoggle" x="0" y="-11.9" width="155.859375" height="23.8" style="fill: rgb(0, 0, 0); fill-opacity: 0;"/></g></g></g><rect class="scrollbar" rx="20" ry="3" width="0" height="0" style="fill: rgb(128, 139, 164); fill-opacity: 1;" x="0" y="0"/></g><g class="g-gtitle"><text class="gtitle" x="60" y="25" text-anchor="start" dy="0em" style="opacity: 1; font-family: Arial, sans-serif; font-size: 22px; fill: rgb(34, 34, 34); fill-opacity: 1; white-space: pre;">Environmental Impacts (excluding GWP)</text></g><g class="g-xtitle"><text class="xtitle" x="615" y="651.747265625" text-anchor="middle" style="opacity: 1; font-family: Arial, sans-serif; font-size: 19px; fill: rgb(34, 34, 34); fill-opacity: 1; white-space: pre;">Year</text></g><g class="g-ytitle" transform="translate(10.291015625,0)"><text class="ytitle" transform="rotate(-90,6.709375000000001,316)" x="6.709375000000001" y="316" text-anchor="middle" style="opacity: 1; font-family: Arial, sans-serif; font-size: 19px; fill: rgb(34, 34, 34); fill-opacity: 1; white-space: pre;">Impact Value</text></g></g></svg>